<svg width="122" height="148" viewBox="0 0 122 148" fill="none" xmlns="http://www.w3.org/2000/svg">
<g clip-path="url(#clip0_203_4630)">
<mask id="mask0_203_4630" style="mask-type:alpha" maskUnits="userSpaceOnUse" x="-95" y="-63" width="194" height="220">
<path d="M-1 157L99 -19L-95 -63V119L-1 157Z" fill="#D9D9D9"/>
</mask>
<g mask="url(#mask0_203_4630)">
<path d="M8.28869 125V100.946H38.0028V37.7444C38.0028 36.0674 37.5835 34.8097 36.745 33.9712C36.0113 33.0279 34.8584 32.5562 33.2862 32.5562H9.86087V7.08702H40.0466C48.9556 7.08702 56.0828 9.81212 61.4281 15.2623C66.7735 20.6077 69.4462 27.4205 69.4462 35.7006V100.946H95.0726V125H8.28869Z" fill="#46FCB7"/>
</g>
<mask id="mask1_203_4630" style="mask-type:alpha" maskUnits="userSpaceOnUse" x="-15" y="6" width="228" height="196">
<path d="M-15 202L97 6H203L213 202H-15Z" fill="#D9D9D9"/>
</mask>
<g mask="url(#mask1_203_4630)">
<path d="M27.2887 141V116.946H57.0028V53.7444C57.0028 52.0674 56.5835 50.8097 55.745 49.9712C55.0113 49.0279 53.8584 48.5562 52.2862 48.5562H28.8609V23.087H59.0466C67.9556 23.087 75.0828 25.8121 80.4281 31.2623C85.7735 36.6077 88.4462 43.4205 88.4462 51.7006V116.946H114.073V141H27.2887Z" fill="#46FCB7"/>
</g>
</g>
<defs>
<clipPath id="clip0_203_4630">
<rect width="122" height="148" fill="white"/>
</clipPath>
</defs>
</svg>
