<svg width="122" height="140" viewBox="0 0 122 140" fill="none" xmlns="http://www.w3.org/2000/svg">
<g clip-path="url(#clip0_203_4630)">
<mask id="mask0_203_4630" style="mask-type:alpha" maskUnits="userSpaceOnUse" x="-99" y="-67" width="194" height="220">
<path d="M-5 153L95 -23L-99 -67V115L-5 153Z" fill="#D9D9D9"/>
</mask>
<g mask="url(#mask0_203_4630)">
<path d="M100.034 96.3169V121H2.71652V101.819C2.71652 96.7885 3.24058 92.2816 4.28869 88.2988C5.33681 84.316 7.17101 80.6476 9.7913 77.2936C12.4116 73.8348 15.8704 70.5332 20.1676 67.3889C24.5697 64.1397 30.0723 60.7858 36.6755 57.327L61.673 44.278C64.3981 42.9154 66.3371 41.6053 67.4901 40.3475C68.643 38.985 69.2194 37.308 69.2194 35.3166C69.2194 32.3818 68.2237 30.3904 66.2323 29.3423C64.2409 28.2942 61.5682 27.7701 58.2142 27.7701H5.232V3.08702H60.8869C74.9317 3.08702 85.2032 5.6549 91.7015 10.7907C98.1998 15.8216 101.449 22.7392 101.449 31.5434C101.449 36.4695 100.715 40.7144 99.2479 44.278C97.7806 47.8415 95.5795 51.0383 92.6448 53.8682C89.8149 56.6981 86.3037 59.4232 82.1113 62.0435C77.9188 64.559 73.0975 67.2841 67.6473 70.2188L44.8508 82.639C41.2872 84.5256 38.9813 86.255 37.9332 87.8271C36.9899 89.3993 36.5182 91.1811 36.5182 93.1725V96.3169H100.034Z" fill="#46FCB7"/>
</g>
<mask id="mask1_203_4630" style="mask-type:alpha" maskUnits="userSpaceOnUse" x="-19" y="2" width="228" height="196">
<path d="M-19 198L93 2H199L209 198H-19Z" fill="#D9D9D9"/>
</mask>
<g mask="url(#mask1_203_4630)">
<path d="M119.034 112.317V137H21.7165V117.819C21.7165 112.789 22.2406 108.282 23.2887 104.299C24.3368 100.316 26.171 96.6476 28.7913 93.2936C31.4116 89.8348 34.8704 86.5332 39.1676 83.3889C43.5697 80.1397 49.0723 76.7858 55.6755 73.327L80.673 60.278C83.3981 58.9154 85.3371 57.6053 86.4901 56.3475C87.643 54.985 88.2194 53.308 88.2194 51.3166C88.2194 48.3818 87.2237 46.3904 85.2323 45.3423C83.2409 44.2942 80.5682 43.7701 77.2142 43.7701H24.232V19.087H79.8869C93.9317 19.087 104.203 21.6549 110.702 26.7907C117.2 31.8216 120.449 38.7392 120.449 47.5434C120.449 52.4695 119.715 56.7144 118.248 60.278C116.781 63.8415 114.58 67.0383 111.645 69.8682C108.815 72.6981 105.304 75.4232 101.111 78.0435C96.9188 80.559 92.0975 83.2841 86.6473 86.2188L63.8508 98.639C60.2872 100.526 57.9813 102.255 56.9332 103.827C55.9899 105.399 55.5182 107.181 55.5182 109.173V112.317H119.034Z" fill="#46FCB7"/>
</g>
</g>
<defs>
<clipPath id="clip0_203_4630">
<rect width="122" height="140" fill="white"/>
</clipPath>
</defs>
</svg>
