<svg width="122" height="140" viewBox="0 0 122 140" fill="none" xmlns="http://www.w3.org/2000/svg">
<g clip-path="url(#clip0_203_4630)">
<mask id="mask0_203_4630" style="mask-type:alpha" maskUnits="userSpaceOnUse" x="-102" y="-67" width="194" height="220">
<path d="M-8 153L92 -23L-102 -67V115L-8 153Z" fill="#D9D9D9"/>
</mask>
<g mask="url(#mask0_203_4630)">
<path d="M28.4873 49.7806L57.2581 28.2418H2.07478V3.08702H100.964V23.5253L60.4024 52.9249H61.8174C69.259 52.9249 75.4953 53.6586 80.5262 55.1259C85.5572 56.4885 89.5924 58.3751 92.632 60.7858C95.6715 63.0916 97.8201 65.8167 99.0779 68.9611C100.44 72.1054 101.122 75.407 101.122 78.8658V90.3426C101.122 100.719 97.2961 108.423 89.6448 113.454C81.9936 118.485 70.7263 121 55.8431 121H4.43304V95.8452H59.9307C63.2847 95.8452 65.6954 95.2688 67.1627 94.1158C68.7349 92.8581 69.521 90.4474 69.521 86.8838V82.639C69.521 79.0754 68.6825 76.7695 67.0055 75.7214C65.4334 74.5685 63.1799 73.992 60.2452 73.992H31.16C27.1771 73.992 24.1376 72.9439 22.0414 70.8477C19.9451 68.7514 18.897 66.0788 18.897 62.8296C18.897 60.1045 19.7355 57.7986 21.4125 55.912C23.1943 53.9206 25.5526 51.8768 28.4873 49.7806Z" fill="#46FCB7"/>
</g>
<mask id="mask1_203_4630" style="mask-type:alpha" maskUnits="userSpaceOnUse" x="-22" y="2" width="228" height="196">
<path d="M-22 198L90 2H196L206 198H-22Z" fill="#D9D9D9"/>
</mask>
<g mask="url(#mask1_203_4630)">
<path d="M47.4873 65.7806L76.2581 44.2418H21.0748V19.087H119.964V39.5253L79.4024 68.9249H80.8174C88.259 68.9249 94.4953 69.6586 99.5262 71.1259C104.557 72.4885 108.592 74.3751 111.632 76.7858C114.671 79.0916 116.82 81.8167 118.078 84.9611C119.44 88.1054 120.122 91.407 120.122 94.8658V106.343C120.122 116.719 116.296 124.423 108.645 129.454C100.994 134.485 89.7263 137 74.8431 137H23.433V111.845H78.9307C82.2847 111.845 84.6954 111.269 86.1627 110.116C87.7349 108.858 88.521 106.447 88.521 102.884V98.639C88.521 95.0754 87.6825 92.7695 86.0055 91.7214C84.4334 90.5685 82.1799 89.992 79.2452 89.992H50.16C46.1771 89.992 43.1376 88.9439 41.0414 86.8477C38.9451 84.7514 37.897 82.0788 37.897 78.8296C37.897 76.1045 38.7355 73.7986 40.4125 71.912C42.1943 69.9206 44.5526 67.8768 47.4873 65.7806Z" fill="#46FCB7"/>
</g>
</g>
<defs>
<clipPath id="clip0_203_4630">
<rect width="122" height="140" fill="white"/>
</clipPath>
</defs>
</svg>
