<svg width="62" height="35" viewBox="0 0 62 35" fill="none" xmlns="http://www.w3.org/2000/svg">
<path d="M19.7617 26.0977L16.9632 34.7514H7.48047L10.2781 26.0977H19.7617Z" fill="#0A0A0A"/>
<path d="M25.3044 8.87109L22.4806 17.6039H12.9971L15.8208 8.87109H25.3044Z" fill="#0A0A0A"/>
<path d="M13.0771 17.5273L10.2795 26.1811H0.795898L3.59434 17.5273H13.0771Z" fill="#0A0A0A"/>
<path d="M18.6079 0.216797L15.8102 8.87055H6.32666L9.12431 0.216797H18.6079Z" fill="#0A0A0A"/>
<path d="M61.204 13.0794C61.204 16.5483 59.826 19.8751 57.3731 22.328C54.9202 24.7808 51.5934 26.1588 48.1246 26.1588H19.6533L22.4194 17.6434H44.7263C45.8896 17.6434 47.0052 17.1813 47.8278 16.3587C48.6503 15.5362 49.1124 14.4205 49.1124 13.2572C49.1124 12.094 48.6503 10.9783 47.8278 10.1558C47.0052 9.3332 45.8896 8.87109 44.7263 8.87109H25.2708L28.1522 2.38812e-08H48.1246C49.8422 -0.000103771 51.5431 0.338133 53.13 0.995399C54.7169 1.65266 56.1588 2.61608 57.3733 3.83064C58.5879 5.0452 59.5513 6.4871 60.2086 8.07402C60.8658 9.66094 61.2041 11.3618 61.204 13.0794Z" fill="#0A0A0A"/>
</svg>
