<svg width="323" height="38" viewBox="0 0 323 38" fill="none" xmlns="http://www.w3.org/2000/svg">
<path d="M0.315313 37V0.999997H28.6833V8.92H9.91531V15.544H28.6833V23.464H9.91531V37H0.315313ZM70.6492 21.496C70.6492 23.896 70.2812 26.088 69.5452 28.072C68.8412 30.024 67.7692 31.704 66.3292 33.112C64.8892 34.488 63.0652 35.56 60.8572 36.328C58.6492 37.096 56.0892 37.48 53.1772 37.48H50.0092C47.0972 37.48 44.5372 37.096 42.3292 36.328C40.1212 35.56 38.2972 34.488 36.8572 33.112C35.4172 31.704 34.3292 30.024 33.5932 28.072C32.8892 26.088 32.5372 23.896 32.5372 21.496V16.504C32.5372 14.104 32.8892 11.928 33.5932 9.976C34.3292 7.992 35.4172 6.312 36.8572 4.936C38.2972 3.528 40.1212 2.44 42.3292 1.672C44.5372 0.903997 47.0972 0.519998 50.0092 0.519998H53.1772C56.0892 0.519998 58.6492 0.903997 60.8572 1.672C63.0652 2.44 64.8892 3.528 66.3292 4.936C67.7692 6.312 68.8412 7.992 69.5452 9.976C70.2812 11.928 70.6492 14.104 70.6492 16.504V21.496ZM42.6172 21.88C42.6172 24.728 43.1452 26.744 44.2012 27.928C45.2892 29.112 47.1292 29.704 49.7212 29.704H53.4652C56.0572 29.704 57.8812 29.112 58.9372 27.928C60.0252 26.744 60.5692 24.728 60.5692 21.88V16.024C60.5692 13.176 60.0252 11.176 58.9372 10.024C57.8812 8.84 56.0572 8.248 53.4652 8.248H49.7212C47.1292 8.248 45.2892 8.84 44.2012 10.024C43.1452 11.176 42.6172 13.176 42.6172 16.024V21.88ZM110.25 37H99.4983L89.9463 26.008C89.1463 25.08 88.5863 24.168 88.2663 23.272C87.9463 22.376 87.7863 21.576 87.7863 20.872C87.7863 19.304 88.2663 18.12 89.2263 17.32C90.1863 16.488 91.4823 16.072 93.1143 16.072H97.8663C98.9223 16.072 99.7063 15.784 100.218 15.208C100.73 14.6 100.986 13.848 100.986 12.952V11.368C100.986 10.408 100.73 9.672 100.218 9.16C99.7383 8.648 98.9223 8.392 97.7703 8.392H85.2903V37H75.6903V0.999997H96.8103C101.45 0.999997 104.874 1.768 107.082 3.304C109.29 4.84 110.394 7.32 110.394 10.744V12.808C110.394 14.312 110.09 15.656 109.482 16.84C108.874 17.992 108.058 18.968 107.034 19.768C106.042 20.568 104.858 21.192 103.482 21.64C102.138 22.056 100.714 22.264 99.2103 22.264H98.0583L110.25 37ZM113.256 37L115.512 11.272C115.832 7.432 116.872 4.664 118.632 2.968C120.424 1.272 122.68 0.423999 125.4 0.423999C128.312 0.423999 130.616 1.32 132.312 3.112C134.04 4.872 135.144 7.288 135.624 10.36L138.456 28.264C138.52 28.648 138.616 28.936 138.744 29.128C138.904 29.32 139.144 29.416 139.464 29.416C139.784 29.416 140.024 29.304 140.184 29.08C140.344 28.856 140.44 28.552 140.472 28.168L143.208 10.312C143.656 7.272 144.728 4.872 146.424 3.112C148.152 1.32 150.456 0.423999 153.336 0.423999C156.376 0.423999 158.632 1.288 160.104 3.016C161.608 4.712 162.52 7.464 162.84 11.272L165.096 37H155.832L153.912 9.88C153.88 9.56 153.816 9.288 153.72 9.064C153.656 8.84 153.464 8.728 153.144 8.728C152.888 8.728 152.68 8.84 152.52 9.064C152.36 9.256 152.264 9.496 152.232 9.784L149.016 29.032C148.6 31.592 147.56 33.656 145.896 35.224C144.264 36.792 142.104 37.576 139.416 37.576C136.632 37.576 134.408 36.776 132.744 35.176C131.08 33.544 130.04 31.48 129.624 28.984L126.264 9.832C126.2 9.48 126.088 9.208 125.928 9.016C125.768 8.824 125.56 8.728 125.304 8.728C124.984 8.728 124.76 8.84 124.632 9.064C124.536 9.288 124.472 9.576 124.44 9.928L122.52 37H113.256ZM184.879 37.624C179.503 37.624 175.663 36.424 173.359 34.024C171.055 31.624 169.903 28.28 169.903 23.992V0.999997H179.503V24.904C179.503 26.632 179.887 27.912 180.655 28.744C181.455 29.544 182.815 29.944 184.735 29.944H190.207C191.999 29.944 193.295 29.544 194.095 28.744C194.927 27.912 195.343 26.632 195.343 24.904V0.999997H204.943V23.992C204.943 26.136 204.687 28.056 204.175 29.752C203.695 31.448 202.879 32.888 201.727 34.072C200.607 35.224 199.087 36.104 197.167 36.712C195.247 37.32 192.879 37.624 190.063 37.624H184.879ZM210.925 37V0.999997H220.525V29.08H238.813V37H210.925ZM272.738 37L269.906 29.464H253.058L250.178 37H240.482L252.434 7.96C253.362 5.688 254.498 3.864 255.842 2.488C257.218 1.112 259.106 0.423999 261.506 0.423999C264.002 0.423999 265.954 1.112 267.362 2.488C268.802 3.832 269.97 5.624 270.866 7.864L282.722 37H272.738ZM260.69 9.688L255.938 22.024H267.074L262.418 9.688C262.322 9.464 262.21 9.272 262.082 9.112C261.986 8.92 261.81 8.824 261.554 8.824C261.33 8.824 261.154 8.904 261.026 9.064C260.898 9.224 260.786 9.432 260.69 9.688ZM296.397 37V29.656H305.469V10.36C305.469 9.848 305.341 9.464 305.085 9.208C304.861 8.92 304.509 8.776 304.029 8.776H296.877V0.999997H306.093C308.813 0.999997 310.989 1.832 312.621 3.496C314.253 5.128 315.069 7.208 315.069 9.736V29.656H322.893V37H296.397Z" fill="#D11616"/>
</svg>
