<svg width="1512" height="669" viewBox="0 0 1512 669" fill="none" xmlns="http://www.w3.org/2000/svg">
<path d="M785 587.185L720.825 587.185L720.825 536.615L734.943 536.615L734.943 570.071L746.752 570.071L746.752 536.615L760.87 536.615L760.87 570.071L785 570.071L785 587.185ZM757.362 461.805C761.64 461.805 765.548 462.461 769.085 463.773C772.564 465.028 775.559 466.939 778.069 469.506C780.522 472.073 782.433 475.324 783.802 479.26C785.171 483.196 785.856 487.76 785.856 492.951L785.856 498.598C785.856 503.789 785.171 508.353 783.802 512.289C782.433 516.225 780.522 519.477 778.069 522.044C775.559 524.611 772.564 526.55 769.085 527.862C765.548 529.117 761.64 529.745 757.362 529.745L748.463 529.745C744.185 529.745 740.306 529.117 736.826 527.862C733.289 526.55 730.294 524.611 727.841 522.044C725.331 519.477 723.392 516.225 722.023 512.289C720.654 508.353 719.969 503.789 719.969 498.598L719.969 492.951C719.969 487.76 720.654 483.196 722.023 479.26C723.392 475.324 725.331 472.073 727.841 469.506C730.294 466.939 733.289 465.028 736.826 463.773C740.306 462.461 744.185 461.805 748.463 461.805L757.362 461.805ZM758.046 511.776C763.123 511.776 766.717 510.834 768.828 508.952C770.939 507.012 771.994 503.732 771.994 499.112L771.994 492.437C771.994 487.817 770.939 484.565 768.828 482.683C766.717 480.743 763.123 479.774 758.046 479.774L747.607 479.774C742.53 479.774 738.965 480.743 736.912 482.683C734.801 484.565 733.746 487.817 733.746 492.437L733.746 499.112C733.746 503.732 734.801 507.012 736.912 508.952C738.965 510.834 742.53 511.776 747.607 511.776L758.046 511.776ZM785 391.21L785 410.377L765.405 427.405C763.751 428.831 762.125 429.829 760.528 430.4C758.931 430.97 757.505 431.255 756.25 431.255C753.454 431.255 751.344 430.4 749.918 428.688C748.434 426.977 747.693 424.667 747.693 421.757L747.693 413.286C747.693 411.404 747.18 410.006 746.153 409.094C745.069 408.181 743.728 407.724 742.131 407.724L739.307 407.724C737.596 407.724 736.284 408.181 735.371 409.094C734.459 409.949 734.002 411.404 734.002 413.457L734.002 435.705L785 435.705L785 452.818L720.825 452.818L720.825 415.169C720.825 406.897 722.194 400.794 724.932 396.857C727.67 392.921 732.091 390.953 738.195 390.953L741.874 390.953C744.555 390.953 746.951 391.495 749.062 392.579C751.116 393.663 752.855 395.118 754.282 396.943C755.708 398.711 756.82 400.822 757.619 403.275C758.36 405.671 758.731 408.209 758.731 410.89L758.731 412.944L785 391.21ZM785 385.852L739.136 381.831C732.291 381.26 727.357 379.406 724.333 376.269C721.31 373.074 719.798 369.053 719.798 364.204C719.798 359.013 721.395 354.906 724.59 351.882C727.727 348.802 732.034 346.834 737.51 345.978L769.427 340.93C770.111 340.816 770.625 340.644 770.967 340.416C771.309 340.131 771.48 339.703 771.48 339.133C771.48 338.562 771.281 338.134 770.881 337.849C770.482 337.564 769.94 337.393 769.256 337.336L737.425 332.459C732.006 331.66 727.727 329.749 724.59 326.726C721.395 323.645 719.798 319.538 719.798 314.404C719.798 308.985 721.338 304.963 724.419 302.339C727.442 299.658 732.348 298.032 739.136 297.462L785 293.44L785 309.954L736.655 313.377C736.084 313.434 735.599 313.548 735.2 313.719C734.801 313.834 734.601 314.176 734.601 314.746C734.601 315.203 734.801 315.573 735.2 315.859C735.542 316.144 735.97 316.315 736.484 316.372L770.796 322.105C775.359 322.847 779.039 324.7 781.834 327.667C784.629 330.576 786.027 334.427 786.027 339.218C786.027 344.181 784.601 348.146 781.748 351.112C778.839 354.078 775.16 355.932 770.71 356.674L736.569 362.664C735.942 362.778 735.457 362.977 735.115 363.263C734.772 363.548 734.601 363.919 734.601 364.375C734.601 364.945 734.801 365.345 735.2 365.573C735.599 365.744 736.113 365.858 736.74 365.915L785 369.338L785 385.852ZM786.112 258.173C786.112 267.757 783.973 274.602 779.695 278.709C775.417 282.816 769.455 284.87 761.811 284.87L720.825 284.87L720.825 267.757L763.437 267.757C766.518 267.757 768.799 267.072 770.283 265.703C771.709 264.277 772.422 261.853 772.422 258.43L772.422 248.675C772.422 245.481 771.709 243.171 770.283 241.744C768.799 240.261 766.518 239.52 763.437 239.52L720.825 239.52L720.825 222.406L761.811 222.406C765.633 222.406 769.056 222.863 772.079 223.775C775.103 224.631 777.67 226.086 779.78 228.139C781.834 230.136 783.403 232.846 784.487 236.268C785.57 239.691 786.112 243.912 786.112 248.932L786.112 258.173ZM785 211.744L720.825 211.744L720.825 194.631L770.881 194.631L770.881 162.03L785 162.03L785 211.744ZM785 101.553L771.566 106.601L771.566 136.635L785 141.769L785 159.054L733.232 137.748C729.182 136.093 725.93 134.068 723.478 131.672C721.025 129.219 719.798 125.854 719.798 121.575C719.798 117.126 721.025 113.646 723.478 111.136C725.873 108.569 729.068 106.487 733.061 104.89L785 83.755L785 101.553ZM736.313 123.03L758.303 131.501L758.303 111.65L736.313 119.95C735.913 120.121 735.571 120.32 735.286 120.549C734.943 120.72 734.772 121.034 734.772 121.49C734.772 121.889 734.915 122.203 735.2 122.431C735.485 122.659 735.856 122.859 736.313 123.03ZM785 59.3785L771.908 59.3785L771.908 43.2064L737.51 43.2064C736.598 43.2064 735.913 43.4346 735.457 43.8909C734.943 44.2902 734.687 44.9177 734.687 45.7734L734.687 58.5228L720.825 58.5228L720.825 42.094C720.825 37.2452 722.308 33.3662 725.274 30.4569C728.184 27.5477 731.892 26.093 736.398 26.093L771.908 26.093L771.908 12.1457L785 12.1457L785 59.3785Z" fill="#D11616"/>
<path d="M1567 9H855C828.49 9 807 30.4903 807 57V669" stroke="#D11616" stroke-width="18"/>
<path d="M-55 9H657C683.51 9 705 30.4903 705 57V669" stroke="#D11616" stroke-width="18"/>
</svg>
