<svg width="112" height="148" viewBox="0 0 112 148" fill="none" xmlns="http://www.w3.org/2000/svg">
<g clip-path="url(#clip0_264_3427)">
<rect width="112" height="148" fill="#0A0A0A"/>
<path d="M12.8505 44.4827C12.465 43.9316 12.0243 43.4907 11.5286 43.16C11.0879 42.8293 10.6197 42.664 10.1239 42.664C9.68327 42.664 9.21507 42.8293 8.71932 43.16C8.22357 43.4356 7.7829 43.8764 7.39732 44.4827L-5.32685 63H-23.339L-1.113 32L-24 1H-4.66586L7.72782 19.2693C8.05832 19.7653 8.41636 20.1511 8.80194 20.4267C9.18752 20.7022 9.5731 20.8676 9.95869 20.9227C10.3443 20.9227 10.7298 20.7849 11.1154 20.5093C11.5561 20.2338 11.9692 19.8204 12.3548 19.2693L24.7485 1H43.339L21.113 32L44 63H25.74L12.8505 44.4827Z" fill="white" fill-opacity="0.12"/>
<path d="M80.8505 75.4827C80.465 74.9316 80.0243 74.4907 79.5286 74.16C79.0879 73.8293 78.6197 73.664 78.1239 73.664C77.6833 73.664 77.2151 73.8293 76.7193 74.16C76.2236 74.4356 75.7829 74.8764 75.3973 75.4827L62.6731 94H44.661L66.887 63L44 32H63.3341L75.7278 50.2693C76.0583 50.7653 76.4164 51.1511 76.8019 51.4267C77.1875 51.7022 77.5731 51.8676 77.9587 51.9227C78.3443 51.9227 78.7298 51.7849 79.1154 51.5093C79.5561 51.2338 79.9692 50.8204 80.3548 50.2693L92.7485 32H111.339L89.113 63L112 94H93.74L80.8505 75.4827Z" fill="white" fill-opacity="0.12"/>
<path d="M12.8505 129.483C12.465 128.932 12.0243 128.491 11.5286 128.16C11.0879 127.829 10.6197 127.664 10.1239 127.664C9.68327 127.664 9.21507 127.829 8.71932 128.16C8.22357 128.436 7.7829 128.876 7.39732 129.483L-5.32685 148H-23.339L-1.113 117L-24 86H-4.66586L7.72782 104.269C8.05832 104.765 8.41636 105.151 8.80194 105.427C9.18752 105.702 9.5731 105.868 9.95869 105.923C10.3443 105.923 10.7298 105.785 11.1154 105.509C11.5561 105.234 11.9692 104.82 12.3548 104.269L24.7485 86H43.339L21.113 117L44 148H25.74L12.8505 129.483Z" fill="white" fill-opacity="0.12"/>
</g>
<defs>
<clipPath id="clip0_264_3427">
<rect width="112" height="148" fill="white"/>
</clipPath>
</defs>
</svg>
