<svg width="50" height="34" viewBox="0 0 50 34" fill="none" xmlns="http://www.w3.org/2000/svg">
<path d="M15.6973 25.417L13.381 33.8452H5.53223L7.84781 25.417H15.6973Z" fill="white"/>
<path d="M20.2852 8.64062L17.9481 17.1458H10.0986L12.4358 8.64062H20.2852Z" fill="white"/>
<path d="M10.165 17.0684L7.84944 25.4965H0L2.31624 17.0684H10.165Z" fill="white"/>
<path d="M14.7432 0.210938L12.4276 8.63913H4.57812L6.89371 0.210938H14.7432Z" fill="white"/>
<path d="M50.0004 12.7385C50.0004 16.117 48.8598 19.357 46.8296 21.746C44.7994 24.1349 42.0459 25.477 39.1747 25.477H15.6094L17.8988 17.1835H36.362C37.3248 17.1835 38.2482 16.7334 38.929 15.9323C39.6099 15.1312 39.9924 14.0446 39.9924 12.9117C39.9924 11.7787 39.6099 10.6922 38.929 9.89104C38.2482 9.08992 37.3248 8.63985 36.362 8.63985H20.2589L22.6438 2.32588e-08H39.1747C40.5964 -0.000101066 42.0042 0.329319 43.3176 0.969453C44.6311 1.60959 45.8245 2.54789 46.8298 3.73079C47.8351 4.91369 48.6325 6.31801 49.1765 7.86356C49.7205 9.40911 50.0005 11.0656 50.0004 12.7385Z" fill="white"/>
</svg>
