<svg width="1188" height="167" viewBox="0 0 1188 167" fill="none" xmlns="http://www.w3.org/2000/svg">
<g clip-path="url(#clip0_1321_6531)">
<rect width="1188" height="167" fill="#0A0A0A"/>
<path d="M20.58 119V20H103.212V41.78H46.32V58.94H103.212V80.06H46.32V97.22H103.212V119H20.58ZM200.106 119L192.318 98.276H145.986L138.066 119H111.402L144.27 39.14C146.822 32.892 149.946 27.876 153.642 24.092C157.426 20.308 162.618 18.416 169.218 18.416C176.082 18.416 181.45 20.308 185.322 24.092C189.282 27.788 192.494 32.716 194.958 38.876L227.562 119H200.106ZM166.974 43.892L153.906 77.816H184.53L171.726 43.892C171.462 43.276 171.154 42.748 170.802 42.308C170.538 41.78 170.054 41.516 169.35 41.516C168.734 41.516 168.25 41.736 167.898 42.176C167.546 42.616 167.238 43.188 166.974 43.892ZM331.796 119H302.228L275.96 88.772C273.76 86.22 272.22 83.712 271.34 81.248C270.46 78.784 270.02 76.584 270.02 74.648C270.02 70.336 271.34 67.08 273.98 64.88C276.62 62.592 280.184 61.448 284.672 61.448H297.74C300.644 61.448 302.8 60.656 304.208 59.072C305.616 57.4 306.32 55.332 306.32 52.868V48.512C306.32 45.872 305.616 43.848 304.208 42.44C302.888 41.032 300.644 40.328 297.476 40.328H263.156V119H236.756V20H294.836C307.596 20 317.012 22.112 323.084 26.336C329.156 30.56 332.192 37.38 332.192 46.796V52.472C332.192 56.608 331.356 60.304 329.684 63.56C328.012 66.728 325.768 69.412 322.952 71.612C320.224 73.812 316.968 75.528 313.184 76.76C309.488 77.904 305.572 78.476 301.436 78.476H298.268L331.796 119ZM343.361 119V46.4C343.361 41.912 344.109 37.908 345.605 34.388C347.101 30.868 349.037 27.964 351.413 25.676C353.877 23.3 356.737 21.496 359.993 20.264C363.337 19.032 366.769 18.416 370.289 18.416C378.737 18.416 385.337 20.704 390.089 25.28C394.929 29.768 398.845 35.708 401.837 43.1L423.353 95.636C423.617 96.252 423.881 96.868 424.145 97.484C424.497 98.012 425.025 98.276 425.729 98.276C426.609 98.276 427.181 98.056 427.445 97.616C427.797 97.088 427.973 96.384 427.973 95.504V20H454.373V92.732C454.373 97.396 453.625 101.488 452.129 105.008C450.633 108.528 448.653 111.476 446.189 113.852C443.813 116.14 440.953 117.856 437.609 119C434.353 120.144 430.965 120.716 427.445 120.716C418.997 120.716 412.397 118.516 407.645 114.116C402.981 109.716 399.065 103.688 395.897 96.032L374.381 43.496C374.117 42.88 373.809 42.308 373.457 41.78C373.193 41.164 372.709 40.856 372.005 40.856C371.125 40.856 370.509 41.12 370.157 41.648C369.893 42.088 369.761 42.748 369.761 43.628V119H343.361ZM543.729 120.716C528.945 120.716 518.385 117.416 512.049 110.816C505.713 104.216 502.545 95.02 502.545 83.228V20H528.945V85.736C528.945 90.488 530.001 94.008 532.113 96.296C534.313 98.496 538.053 99.596 543.333 99.596H558.381C563.309 99.596 566.873 98.496 569.073 96.296C571.361 94.008 572.505 90.488 572.505 85.736V20H598.905V83.228C598.905 89.124 598.201 94.404 596.793 99.068C595.473 103.732 593.229 107.692 590.061 110.948C586.981 114.116 582.801 116.536 577.521 118.208C572.241 119.88 565.729 120.716 557.985 120.716H543.729ZM704.849 47.984V57.752C704.849 68.488 701.593 75.88 695.081 79.928C688.569 83.976 678.493 86 664.853 86H641.753V119H615.353V20H664.853C678.493 20 688.569 22.156 695.081 26.468C701.593 30.78 704.849 37.952 704.849 47.984ZM678.449 56.96V49.172C678.449 46.092 677.481 43.716 675.545 42.044C673.697 40.284 670.397 39.404 665.645 39.404H641.753V66.596H665.645C670.397 66.596 673.697 65.76 675.545 64.088C677.481 62.328 678.449 59.952 678.449 56.96ZM750.432 119V41.78H712.812V20H814.452V41.78H776.832V119H750.432ZM922.596 76.364C922.596 82.964 921.584 88.992 919.56 94.448C917.624 99.816 914.676 104.436 910.716 108.308C906.756 112.092 901.74 115.04 895.668 117.152C889.596 119.264 882.556 120.32 874.548 120.32H865.836C857.828 120.32 850.788 119.264 844.716 117.152C838.644 115.04 833.628 112.092 829.668 108.308C825.708 104.436 822.716 99.816 820.692 94.448C818.756 88.992 817.788 82.964 817.788 76.364V62.636C817.788 56.036 818.756 50.052 820.692 44.684C822.716 39.228 825.708 34.608 829.668 30.824C833.628 26.952 838.644 23.96 844.716 21.848C850.788 19.736 857.828 18.68 865.836 18.68H874.548C882.556 18.68 889.596 19.736 895.668 21.848C901.74 23.96 906.756 26.952 910.716 30.824C914.676 34.608 917.624 39.228 919.56 44.684C921.584 50.052 922.596 56.036 922.596 62.636V76.364ZM845.508 77.42C845.508 85.252 846.96 90.796 849.864 94.052C852.856 97.308 857.916 98.936 865.044 98.936H875.34C882.468 98.936 887.484 97.308 890.388 94.052C893.38 90.796 894.876 85.252 894.876 77.42V61.316C894.876 53.484 893.38 47.984 890.388 44.816C887.484 41.56 882.468 39.932 875.34 39.932H865.044C857.916 39.932 852.856 41.56 849.864 44.816C846.96 47.984 845.508 53.484 845.508 61.316V77.42ZM985.99 103.82C977.806 103.82 971.778 102.192 967.906 98.936C964.122 95.592 962.23 91.412 962.23 86.396C962.23 82.964 963.022 79.62 964.606 76.364C966.278 73.02 969.006 68.972 972.79 64.22L996.682 34.256C1000.47 29.504 1004.6 25.72 1009.09 22.904C1013.67 20.088 1018.59 18.68 1023.87 18.68H1027.31C1033.38 18.68 1038.48 20.572 1042.62 24.356C1046.84 28.14 1048.95 34.124 1048.95 42.308V83.624H1064.13V103.82H1048.95V119H1023.21V103.82H985.99ZM993.646 83.624H1023.21V44.42C1023.21 43.54 1022.99 42.924 1022.55 42.572C1022.11 42.132 1021.54 41.912 1020.84 41.912C1020.31 41.912 1019.83 42.088 1019.39 42.44C1019.03 42.704 1018.68 43.1 1018.33 43.628L991.27 78.344C990.918 78.872 990.61 79.356 990.346 79.796C990.17 80.236 990.082 80.676 990.082 81.116C990.082 81.82 990.302 82.436 990.742 82.964C991.27 83.404 992.238 83.624 993.646 83.624ZM1127.68 89.432C1127.06 88.552 1126.36 87.848 1125.56 87.32C1124.86 86.792 1124.11 86.528 1123.32 86.528C1122.62 86.528 1121.87 86.792 1121.08 87.32C1120.28 87.76 1119.58 88.464 1118.96 89.432L1098.64 119H1069.86L1105.37 69.5L1068.8 20H1099.69L1119.49 49.172C1120.02 49.964 1120.59 50.58 1121.21 51.02C1121.82 51.46 1122.44 51.724 1123.06 51.812C1123.67 51.812 1124.29 51.592 1124.9 51.152C1125.61 50.712 1126.27 50.052 1126.88 49.172L1146.68 20H1176.38L1140.88 69.5L1177.44 119H1148.27L1127.68 89.432Z" fill="#191818"/>
<path d="M205.677 135.248C205.45 134.928 205.191 134.672 204.899 134.48C204.64 134.288 204.365 134.192 204.073 134.192C203.814 134.192 203.538 134.288 203.247 134.48C202.955 134.64 202.696 134.896 202.469 135.248L194.984 146H184.389L197.463 128L184 110H195.373L202.663 120.608C202.858 120.896 203.068 121.12 203.295 121.28C203.522 121.44 203.749 121.536 203.976 121.568C204.203 121.568 204.429 121.488 204.656 121.328C204.915 121.168 205.158 120.928 205.385 120.608L212.676 110H223.611L210.537 128L224 146H213.259L205.677 135.248Z" fill="#46FCB7"/>
<path d="M724.677 135.248C724.45 134.928 724.191 134.672 723.899 134.48C723.64 134.288 723.365 134.192 723.073 134.192C722.814 134.192 722.538 134.288 722.247 134.48C721.955 134.64 721.696 134.896 721.469 135.248L713.984 146H703.389L716.463 128L703 110H714.373L721.663 120.608C721.858 120.896 722.068 121.12 722.295 121.28C722.522 121.44 722.749 121.536 722.976 121.568C723.203 121.568 723.429 121.488 723.656 121.328C723.915 121.168 724.158 120.928 724.385 120.608L731.676 110H742.611L729.537 128L743 146H732.259L724.677 135.248Z" fill="#46FCB7"/>
<path d="M261.677 135.248C261.45 134.928 261.191 134.672 260.899 134.48C260.64 134.288 260.365 134.192 260.073 134.192C259.814 134.192 259.538 134.288 259.247 134.48C258.955 134.64 258.696 134.896 258.469 135.248L250.984 146H240.389L253.463 128L240 110H251.373L258.663 120.608C258.858 120.896 259.068 121.12 259.295 121.28C259.522 121.44 259.749 121.536 259.976 121.568C260.203 121.568 260.429 121.488 260.656 121.328C260.915 121.168 261.158 120.928 261.385 120.608L268.676 110H279.611L266.537 128L280 146H269.259L261.677 135.248Z" fill="#46FCB7"/>
<path d="M780.677 135.248C780.45 134.928 780.191 134.672 779.899 134.48C779.64 134.288 779.365 134.192 779.073 134.192C778.814 134.192 778.538 134.288 778.247 134.48C777.955 134.64 777.696 134.896 777.469 135.248L769.984 146H759.389L772.463 128L759 110H770.373L777.663 120.608C777.858 120.896 778.068 121.12 778.295 121.28C778.522 121.44 778.749 121.536 778.976 121.568C779.203 121.568 779.429 121.488 779.656 121.328C779.915 121.168 780.158 120.928 780.385 120.608L787.676 110H798.611L785.537 128L799 146H788.259L780.677 135.248Z" fill="#46FCB7"/>
<path d="M317.677 135.248C317.45 134.928 317.191 134.672 316.899 134.48C316.64 134.288 316.365 134.192 316.073 134.192C315.814 134.192 315.538 134.288 315.247 134.48C314.955 134.64 314.696 134.896 314.469 135.248L306.984 146H296.389L309.463 128L296 110H307.373L314.663 120.608C314.858 120.896 315.068 121.12 315.295 121.28C315.522 121.44 315.749 121.536 315.976 121.568C316.203 121.568 316.429 121.488 316.656 121.328C316.915 121.168 317.158 120.928 317.385 120.608L324.676 110H335.611L322.537 128L336 146H325.259L317.677 135.248Z" fill="#46FCB7"/>
<path d="M836.677 135.248C836.45 134.928 836.191 134.672 835.899 134.48C835.64 134.288 835.365 134.192 835.073 134.192C834.814 134.192 834.538 134.288 834.247 134.48C833.955 134.64 833.696 134.896 833.469 135.248L825.984 146H815.389L828.463 128L815 110H826.373L833.663 120.608C833.858 120.896 834.068 121.12 834.295 121.28C834.522 121.44 834.749 121.536 834.976 121.568C835.203 121.568 835.429 121.488 835.656 121.328C835.915 121.168 836.158 120.928 836.385 120.608L843.676 110H854.611L841.537 128L855 146H844.259L836.677 135.248Z" fill="#46FCB7"/>
<path d="M892.677 135.248C892.45 134.928 892.191 134.672 891.899 134.48C891.64 134.288 891.365 134.192 891.073 134.192C890.814 134.192 890.538 134.288 890.247 134.48C889.955 134.64 889.696 134.896 889.469 135.248L881.984 146H871.389L884.463 128L871 110H882.373L889.663 120.608C889.858 120.896 890.068 121.12 890.295 121.28C890.522 121.44 890.749 121.536 890.976 121.568C891.203 121.568 891.429 121.488 891.656 121.328C891.915 121.168 892.158 120.928 892.385 120.608L899.676 110H910.611L897.537 128L911 146H900.259L892.677 135.248Z" fill="#46FCB7"/>
<path d="M429.677 135.248C429.45 134.928 429.191 134.672 428.899 134.48C428.64 134.288 428.365 134.192 428.073 134.192C427.814 134.192 427.538 134.288 427.247 134.48C426.955 134.64 426.696 134.896 426.469 135.248L418.984 146H408.389L421.463 128L408 110H419.373L426.663 120.608C426.858 120.896 427.068 121.12 427.295 121.28C427.522 121.44 427.749 121.536 427.976 121.568C428.203 121.568 428.429 121.488 428.656 121.328C428.915 121.168 429.158 120.928 429.385 120.608L436.676 110H447.611L434.537 128L448 146H437.259L429.677 135.248Z" fill="#46FCB7"/>
<path d="M948.677 135.248C948.45 134.928 948.191 134.672 947.899 134.48C947.64 134.288 947.365 134.192 947.073 134.192C946.814 134.192 946.538 134.288 946.247 134.48C945.955 134.64 945.696 134.896 945.469 135.248L937.984 146H927.389L940.463 128L927 110H938.373L945.663 120.608C945.858 120.896 946.068 121.12 946.295 121.28C946.522 121.44 946.749 121.536 946.976 121.568C947.203 121.568 947.429 121.488 947.656 121.328C947.915 121.168 948.158 120.928 948.385 120.608L955.676 110H966.611L953.537 128L967 146H956.259L948.677 135.248Z" fill="#46FCB7"/>
<path d="M485.677 135.248C485.45 134.928 485.191 134.672 484.899 134.48C484.64 134.288 484.365 134.192 484.073 134.192C483.814 134.192 483.538 134.288 483.247 134.48C482.955 134.64 482.696 134.896 482.469 135.248L474.984 146H464.389L477.463 128L464 110H475.373L482.663 120.608C482.858 120.896 483.068 121.12 483.295 121.28C483.522 121.44 483.749 121.536 483.976 121.568C484.203 121.568 484.429 121.488 484.656 121.328C484.915 121.168 485.158 120.928 485.385 120.608L492.676 110H503.611L490.537 128L504 146H493.259L485.677 135.248Z" fill="#46FCB7"/>
<path d="M1004.68 135.248C1004.45 134.928 1004.19 134.672 1003.9 134.48C1003.64 134.288 1003.36 134.192 1003.07 134.192C1002.81 134.192 1002.54 134.288 1002.25 134.48C1001.96 134.64 1001.7 134.896 1001.47 135.248L993.984 146H983.389L996.463 128L983 110H994.373L1001.66 120.608C1001.86 120.896 1002.07 121.12 1002.3 121.28C1002.52 121.44 1002.75 121.536 1002.98 121.568C1003.2 121.568 1003.43 121.488 1003.66 121.328C1003.92 121.168 1004.16 120.928 1004.39 120.608L1011.68 110H1022.61L1009.54 128L1023 146H1012.26L1004.68 135.248Z" fill="#46FCB7"/>
</g>
<defs>
<clipPath id="clip0_1321_6531">
<rect width="1188" height="167" fill="white"/>
</clipPath>
</defs>
</svg>
