<svg width="52" height="52" viewBox="0 0 52 52" fill="none" xmlns="http://www.w3.org/2000/svg">
<g id="podiumpe-04 3">
<g clip-path="url(#clip0_2027_6475)">
<rect width="52" height="52" rx="8" fill="white"/>
<g id="Layer 1">
<path id="Vector" d="M52.3367 -0.335938H-0.0966797V52.3863H52.3367V-0.335938Z" fill="white"/>
</g>
<g id="Layer 3">
<path id="Vector_2" d="M18.6947 29.9634L16.8757 35.5883H10.7119L12.5304 29.9634H18.6947Z" fill="#0A0A0A"/>
<path id="Vector_3" d="M22.2976 18.7661L20.4622 24.4424H14.2979L16.1333 18.7661H22.2976Z" fill="#0A0A0A"/>
<path id="Vector_4" d="M14.35 24.3921L12.5315 30.017H6.36719L8.18618 24.3921H14.35Z" fill="#0A0A0A"/>
<path id="Vector_5" d="M17.9457 13.1411L16.1272 18.7661H9.96289L11.7814 13.1411H17.9457Z" fill="#0A0A0A"/>
<path id="Vector_6" d="M45.6329 21.5016C45.6329 23.7564 44.7372 25.9188 43.1429 27.5132C41.5485 29.1075 39.3861 30.0032 37.1313 30.0032H18.625L20.4229 24.4682H34.9224C35.6786 24.4682 36.4037 24.1678 36.9384 23.6332C37.4731 23.0985 37.7734 22.3733 37.7734 21.6172C37.7734 20.8611 37.4731 20.1359 36.9384 19.6012C36.4037 19.0666 35.6786 18.7662 34.9224 18.7662H22.2763L24.1493 13H37.1313C38.2478 12.9999 39.3533 13.2198 40.3848 13.647C41.4163 14.0742 42.3536 14.7005 43.143 15.4899C43.9325 16.2794 44.5587 17.2166 44.9859 18.2481C45.4131 19.2796 45.633 20.3852 45.6329 21.5016Z" fill="#0A0A0A"/>
</g>
</g>
</g>
<defs>
<clipPath id="clip0_2027_6475">
<rect width="52" height="52" rx="8" fill="white"/>
</clipPath>
</defs>
</svg>
