<svg width="120" height="148" viewBox="0 0 120 148" fill="none" xmlns="http://www.w3.org/2000/svg">
<g clip-path="url(#clip0_264_3427)">
<rect width="120" height="148" fill="#0A0A0A"/>
<path d="M99.3728 104.103C99.7476 104.662 100.18 105.111 100.669 105.451C101.103 105.79 101.568 105.965 102.064 105.974C102.504 105.983 102.975 105.827 103.478 105.506C103.979 105.24 104.428 104.808 104.825 104.209L117.907 85.9427L135.915 86.2928L113.091 116.855L135.371 148.294L116.041 147.918L104.004 129.411C103.684 128.909 103.333 128.516 102.953 128.233C102.573 127.95 102.191 127.778 101.806 127.715C101.421 127.707 101.032 127.838 100.642 128.106C100.196 128.373 99.7745 128.778 99.3783 129.321L86.6318 147.346L68.0448 146.985L90.8692 116.423L68.5892 84.9838L86.8457 85.3388L99.3728 104.103Z" fill="white" fill-opacity="0.12"/>
<path d="M31.989 71.7877C32.3638 72.3462 32.7958 72.7956 33.285 73.1358C33.7192 73.475 34.1841 73.6494 34.6797 73.659C35.1203 73.6676 35.5916 73.5114 36.0937 73.1904C36.5947 72.9246 37.0439 72.4923 37.4412 71.8937L50.5229 53.6272L68.5317 53.9774L45.7072 84.5395L67.9873 115.979L48.6568 115.603L36.6206 97.0959C36.2998 96.5935 35.9494 96.2009 35.5692 95.9179C35.189 95.6349 34.8068 95.4621 34.4223 95.3995C34.0368 95.392 33.6486 95.5222 33.2578 95.7903C32.8118 96.0572 32.3907 96.4624 31.9945 97.0059L19.248 115.031L0.661024 114.67L23.4854 84.1074L1.20538 52.6684L19.462 53.0233L31.989 71.7877Z" fill="white" fill-opacity="0.12"/>
<path d="M101.025 19.1197C101.4 19.6783 101.832 20.1276 102.321 20.4679C102.755 20.807 103.22 20.9814 103.716 20.9911C104.156 20.9996 104.628 20.8434 105.13 20.5225C105.631 20.2566 106.08 19.8244 106.477 19.2258L119.559 0.959271L137.568 1.30941L114.743 31.8715L137.023 63.3105L117.693 62.9347L105.657 44.4279C105.336 43.9256 104.985 43.5329 104.605 43.2499C104.225 42.9669 103.843 42.7941 103.458 42.7315C103.073 42.724 102.685 42.8543 102.294 43.1223C101.848 43.3892 101.427 43.7944 101.031 44.338L88.2842 62.3629L69.6972 62.0015L92.5216 31.4394L70.2415 0.000397369L88.4981 0.355357L101.025 19.1197Z" fill="white" fill-opacity="0.12"/>
</g>
<defs>
<clipPath id="clip0_264_3427">
<rect width="120" height="148" fill="white"/>
</clipPath>
</defs>
</svg>
