<svg width="390" height="145" viewBox="0 0 390 145" fill="none" xmlns="http://www.w3.org/2000/svg">
<g clip-path="url(#clip0_260_3437)">
<rect width="390" height="145" fill="#0A0A0A"/>
<path d="M26.8505 41.4827C26.465 40.9316 26.0243 40.4907 25.5286 40.16C25.0879 39.8293 24.6197 39.664 24.1239 39.664C23.6833 39.664 23.2151 39.8293 22.7193 40.16C22.2236 40.4356 21.7829 40.8764 21.3973 41.4827L8.67315 60H-9.339L12.887 29L-10 -2H9.33414L21.7278 16.2693C22.0583 16.7653 22.4164 17.1511 22.8019 17.4267C23.1875 17.7022 23.5731 17.8676 23.9587 17.9227C24.3443 17.9227 24.7298 17.7849 25.1154 17.5093C25.5561 17.2338 25.9692 16.8204 26.3548 16.2693L38.7485 -2H57.339L35.113 29L58 60H39.74L26.8505 41.4827Z" fill="white" fill-opacity="0.12"/>
<path d="M94.8505 72.4827C94.465 71.9316 94.0243 71.4907 93.5286 71.16C93.0879 70.8293 92.6197 70.664 92.1239 70.664C91.6833 70.664 91.2151 70.8293 90.7193 71.16C90.2236 71.4356 89.7829 71.8764 89.3973 72.4827L76.6731 91H58.661L80.887 60L58 29H77.3341L89.7278 47.2693C90.0583 47.7653 90.4164 48.1511 90.8019 48.4267C91.1875 48.7022 91.5731 48.8676 91.9587 48.9227C92.3443 48.9227 92.7298 48.7849 93.1154 48.5093C93.5561 48.2338 93.9692 47.8204 94.3548 47.2693L106.748 29H125.339L103.113 60L126 91H107.74L94.8505 72.4827Z" fill="white" fill-opacity="0.12"/>
<path d="M26.8505 126.483C26.465 125.932 26.0243 125.491 25.5286 125.16C25.0879 124.829 24.6197 124.664 24.1239 124.664C23.6833 124.664 23.2151 124.829 22.7193 125.16C22.2236 125.436 21.7829 125.876 21.3973 126.483L8.67315 145H-9.339L12.887 114L-10 83H9.33414L21.7278 101.269C22.0583 101.765 22.4164 102.151 22.8019 102.427C23.1875 102.702 23.5731 102.868 23.9587 102.923C24.3443 102.923 24.7298 102.785 25.1154 102.509C25.5561 102.234 25.9692 101.82 26.3548 101.269L38.7485 83H57.339L35.113 114L58 145H39.74L26.8505 126.483Z" fill="white" fill-opacity="0.12"/>
<path d="M141 35L145.7 47.7C145.767 47.9 145.867 48.06 146 48.18C146.133 48.2867 146.327 48.34 146.58 48.34C146.807 48.34 146.987 48.2933 147.12 48.2C147.267 48.0933 147.38 47.9333 147.46 47.72L151.3 37.4C151.633 36.5067 152.36 35.84 153.48 35.4C154.6 34.96 156.167 34.74 158.18 34.74C160.167 34.74 161.7 34.98 162.78 35.46C163.873 35.94 164.56 36.56 164.84 37.32L168.52 47.62C168.613 47.8733 168.727 48.06 168.86 48.18C169.007 48.2867 169.207 48.34 169.46 48.34C169.687 48.34 169.86 48.28 169.98 48.16C170.1 48.04 170.2 47.88 170.28 47.68L175.26 35H181.46L176.52 46.82C176.013 48.0333 175.167 48.9133 173.98 49.46C172.807 49.9933 171.253 50.26 169.32 50.26C168.227 50.26 167.287 50.1933 166.5 50.06C165.713 49.9267 165.04 49.7267 164.48 49.46C163.933 49.18 163.48 48.8333 163.12 48.42C162.773 47.9933 162.493 47.4933 162.28 46.92L158.72 37.62C158.653 37.4467 158.567 37.3133 158.46 37.22C158.367 37.1133 158.213 37.06 158 37.06C157.76 37.06 157.593 37.1067 157.5 37.2C157.42 37.2933 157.347 37.4267 157.28 37.6L153.7 46.88C153.247 48.04 152.46 48.8933 151.34 49.44C150.22 49.9867 148.593 50.26 146.46 50.26C144.407 50.26 142.84 49.9933 141.76 49.46C140.68 48.9133 139.88 48.02 139.36 46.78L134.4 35H141ZM183.652 50V35H190.252V41.5H205.252V35H211.852V50H205.252V43.5H190.252V50H183.652ZM238.648 50L236.108 45.96H223.308L220.768 50H213.948L221.728 38.26C222.448 37.1667 223.422 36.3067 224.648 35.68C225.888 35.0533 227.582 34.74 229.728 34.74C231.902 34.74 233.608 35.0533 234.848 35.68C236.102 36.3067 237.068 37.14 237.748 38.18L245.548 50H238.648ZM228.608 37.54L224.688 43.76H234.708L230.808 37.56C230.675 37.3467 230.515 37.1933 230.328 37.1C230.142 36.9933 229.935 36.94 229.708 36.94C229.482 36.94 229.275 36.9867 229.088 37.08C228.902 37.1733 228.742 37.3267 228.608 37.54ZM252.151 50V37H241.351V35H269.551V37H258.751V50H252.151ZM270.679 40.58C271.333 39.8867 271.773 39.2333 271.999 38.62C272.239 37.9933 272.359 37.3267 272.359 36.62V35H276.759V36.4C276.759 37.24 276.519 37.9867 276.039 38.64C275.559 39.28 274.839 39.9267 273.879 40.58H270.679ZM279.483 50V48H297.763C298.563 48 299.137 47.86 299.483 47.58C299.843 47.3 300.023 46.8533 300.023 46.24C300.023 45.7067 299.837 45.2867 299.463 44.98C299.103 44.6733 298.503 44.52 297.663 44.52H285.603C283.257 44.52 281.57 44.12 280.543 43.32C279.53 42.52 279.023 41.3533 279.023 39.82C279.023 38.1267 279.643 36.9 280.883 36.14C282.123 35.38 283.897 35 286.203 35H305.223V37H287.043C286.31 37 285.757 37.1333 285.383 37.4C285.01 37.6533 284.823 38.08 284.823 38.68C284.823 39.2133 285.01 39.6267 285.383 39.92C285.77 40.2 286.303 40.34 286.983 40.34H299.883C302.03 40.34 303.557 40.78 304.463 41.66C305.37 42.5267 305.823 43.6467 305.823 45.02C305.823 46.7667 305.21 48.0333 303.983 48.82C302.77 49.6067 300.93 50 298.463 50H279.483ZM335.33 50.26H327.73C325.53 50.26 323.69 50.1133 322.21 49.82C320.744 49.5267 319.577 49.1 318.71 48.54C317.844 47.9667 317.23 47.26 316.87 46.42C316.51 45.5667 316.33 44.5933 316.33 43.5V41.5C316.33 40.4067 316.517 39.44 316.89 38.6C317.277 37.7467 317.917 37.04 318.81 36.48C319.704 35.9067 320.897 35.4733 322.39 35.18C323.884 34.8867 325.73 34.74 327.93 34.74H335.53C337.73 34.74 339.577 34.8867 341.07 35.18C342.564 35.4733 343.757 35.9067 344.65 36.48C345.544 37.04 346.177 37.7467 346.55 38.6C346.937 39.44 347.13 40.4067 347.13 41.5V43.5C347.13 44.5933 346.93 45.5667 346.53 46.42C346.13 47.26 345.47 47.9667 344.55 48.54C343.63 49.1 342.41 49.5267 340.89 49.82C339.384 50.1133 337.53 50.26 335.33 50.26ZM335.93 48.26C337.424 48.26 338.497 47.9467 339.15 47.32C339.804 46.68 340.13 45.5867 340.13 44.04V40.94C340.13 39.3933 339.81 38.3067 339.17 37.68C338.53 37.0533 337.517 36.74 336.13 36.74H327.33C325.944 36.74 324.93 37.0533 324.29 37.68C323.65 38.3067 323.33 39.3933 323.33 40.94V44.04C323.33 45.5867 323.637 46.68 324.25 47.32C324.877 47.9467 325.837 48.26 327.13 48.26H335.93ZM350.038 50V38C350.038 36.9467 350.652 36.14 351.878 35.58C353.105 35.02 354.925 34.74 357.338 34.74C359.298 34.74 361.025 34.9267 362.518 35.3C364.025 35.66 365.125 36.38 365.818 37.46L372.378 47.62C372.498 47.8067 372.645 47.96 372.818 48.08C373.005 48.2 373.205 48.26 373.418 48.26C373.778 48.26 374.005 48.18 374.098 48.02C374.192 47.8467 374.238 47.5733 374.238 47.2V35H380.838V47.14C380.838 48.22 380.192 49.0133 378.898 49.52C377.605 50.0133 375.692 50.26 373.158 50.26C371.332 50.26 369.745 50.06 368.398 49.66C367.052 49.26 366.072 48.58 365.458 47.62L358.878 37.5C358.718 37.26 358.532 37.0733 358.318 36.94C358.105 36.8067 357.865 36.74 357.598 36.74C357.185 36.74 356.918 36.8333 356.798 37.02C356.692 37.1933 356.638 37.48 356.638 37.88V50H350.038ZM145.1 74V61H134.3V59H162.5V61H151.7V74H145.1ZM164.609 74V59H171.209V65.5H186.209V59H192.809V74H186.209V67.5H171.209V74H164.609ZM196.405 74V59H222.045V61H203.005V65.38H222.045V67.38H203.005V72H222.045V74H196.405ZM256.852 74L254.312 69.96H241.512L238.972 74H232.152L239.932 62.26C240.652 61.1667 241.625 60.3067 242.852 59.68C244.092 59.0533 245.785 58.74 247.932 58.74C250.105 58.74 251.812 59.0533 253.052 59.68C254.305 60.3067 255.272 61.14 255.952 62.18L263.752 74H256.852ZM246.812 61.54L242.892 67.76H252.912L249.012 61.56C248.878 61.3467 248.718 61.1933 248.532 61.1C248.345 60.9933 248.138 60.94 247.912 60.94C247.685 60.94 247.478 60.9867 247.292 61.08C247.105 61.1733 246.945 61.3267 246.812 61.54ZM282.979 68.1H272.459V74H265.859V59H282.939C284.819 59 286.372 59.0667 287.599 59.2C288.839 59.32 289.819 59.54 290.539 59.86C291.259 60.1667 291.765 60.5933 292.059 61.14C292.352 61.6733 292.499 62.3467 292.499 63.16V64.08C292.499 64.7733 292.352 65.38 292.059 65.9C291.765 66.4067 291.259 66.82 290.539 67.14C289.832 67.46 288.859 67.7 287.619 67.86C286.392 68.02 284.845 68.1 282.979 68.1ZM272.459 61V66.2H283.159C284.012 66.2 284.632 66.0667 285.019 65.8C285.405 65.52 285.599 65.0067 285.599 64.26V62.92C285.599 62.2 285.405 61.7 285.019 61.42C284.632 61.14 284.012 61 283.159 61H272.459ZM312.315 68.1H301.795V74H295.195V59H312.275C314.155 59 315.708 59.0667 316.935 59.2C318.175 59.32 319.155 59.54 319.875 59.86C320.595 60.1667 321.101 60.5933 321.395 61.14C321.688 61.6733 321.835 62.3467 321.835 63.16V64.08C321.835 64.7733 321.688 65.38 321.395 65.9C321.101 66.4067 320.595 66.82 319.875 67.14C319.168 67.46 318.195 67.7 316.955 67.86C315.728 68.02 314.181 68.1 312.315 68.1ZM301.795 61V66.2H312.495C313.348 66.2 313.968 66.0667 314.355 65.8C314.741 65.52 314.935 65.0067 314.935 64.26V62.92C314.935 62.2 314.741 61.7 314.355 61.42C313.968 61.14 313.348 61 312.495 61H301.795ZM339.09 63.92V62.92C339.09 62.2 338.917 61.6667 338.57 61.32C338.224 60.9733 337.61 60.8 336.73 60.8H323.73V59H337.95C339.404 59 340.637 59.0733 341.65 59.22C342.664 59.3533 343.477 59.5733 344.09 59.88C344.704 60.1733 345.15 60.5667 345.43 61.06C345.71 61.5533 345.85 62.1533 345.85 62.86V63.86C345.85 64.58 345.71 65.2 345.43 65.72C345.15 66.2267 344.704 66.64 344.09 66.96C343.477 67.2667 342.664 67.4933 341.65 67.64C340.637 67.7733 339.404 67.84 337.95 67.84H326.13V66.04H336.93C337.73 66.04 338.29 65.8667 338.61 65.52C338.93 65.1733 339.09 64.64 339.09 63.92ZM326.53 74V69.9H332.03V74H326.53Z" fill="#272727"/>
</g>
<defs>
<clipPath id="clip0_260_3437">
<rect width="390" height="145" fill="white"/>
</clipPath>
</defs>
</svg>
