<svg width="1511" height="514" viewBox="0 0 1511 514" fill="none" xmlns="http://www.w3.org/2000/svg">
<g clip-path="url(#clip0_1308_6405)">
<path d="M62.1446 182.293C60.7724 180.338 59.2041 178.773 57.4398 177.6C55.8716 176.427 54.2053 175.84 52.4411 175.84C50.8728 175.84 49.2066 176.427 47.4423 177.6C45.678 178.578 44.1097 180.142 42.7375 182.293L-2.54557 248H-66.6476L12.4508 138L-69 28H-0.1932L43.9137 92.8267C45.0899 94.5867 46.3641 95.9556 47.7363 96.9333C49.1085 97.9111 50.4808 98.4978 51.853 98.6933C53.2252 98.6933 54.5974 98.2045 55.9696 97.2267C57.5379 96.2489 59.0081 94.7822 60.3803 92.8267L104.487 28H170.648L91.5492 138L173 248H108.016L62.1446 182.293Z" fill="white" fill-opacity="0.12"/>
<path d="M1449.86 331.707C1451.23 333.662 1452.8 335.227 1454.56 336.4C1456.13 337.573 1457.79 338.16 1459.56 338.16C1461.13 338.16 1462.79 337.573 1464.56 336.4C1466.32 335.422 1467.89 333.858 1469.26 331.707L1514.55 266L1578.65 266L1499.55 376L1581 486L1512.19 486L1468.09 421.173C1466.91 419.413 1465.64 418.044 1464.26 417.067C1462.89 416.089 1461.52 415.502 1460.15 415.307C1458.77 415.307 1457.4 415.796 1456.03 416.773C1454.46 417.751 1452.99 419.218 1451.62 421.173L1407.51 486L1341.35 486L1420.45 376L1339 266L1403.98 266L1449.86 331.707Z" fill="white" fill-opacity="0.12"/>
<path d="M276.145 302.293C274.772 300.338 273.204 298.773 271.44 297.6C269.872 296.427 268.205 295.84 266.441 295.84C264.873 295.84 263.207 296.427 261.442 297.6C259.678 298.578 258.11 300.142 256.738 302.293L211.454 368H147.352L226.451 258L145 148H213.807L257.914 212.827C259.09 214.587 260.364 215.956 261.736 216.933C263.109 217.911 264.481 218.498 265.853 218.693C267.225 218.693 268.597 218.204 269.97 217.227C271.538 216.249 273.008 214.782 274.38 212.827L318.487 148H384.648L305.549 258L387 368H322.016L276.145 302.293Z" fill="white" fill-opacity="0.12"/>
<path d="M1235.86 211.707C1237.23 213.662 1238.8 215.227 1240.56 216.4C1242.13 217.573 1243.79 218.16 1245.56 218.16C1247.13 218.16 1248.79 217.573 1250.56 216.4C1252.32 215.422 1253.89 213.858 1255.26 211.707L1300.55 146L1364.65 146L1285.55 256L1367 366L1298.19 366L1254.09 301.173C1252.91 299.413 1251.64 298.044 1250.26 297.067C1248.89 296.089 1247.52 295.502 1246.15 295.307C1244.77 295.307 1243.4 295.796 1242.03 296.773C1240.46 297.751 1238.99 299.218 1237.62 301.173L1193.51 366L1127.35 366L1206.45 256L1125 146L1189.98 146L1235.86 211.707Z" fill="white" fill-opacity="0.12"/>
<path d="M62.1446 437.293C60.7724 435.338 59.2041 433.773 57.4398 432.6C55.8716 431.427 54.2053 430.84 52.4411 430.84C50.8728 430.84 49.2066 431.427 47.4423 432.6C45.678 433.578 44.1097 435.142 42.7375 437.293L-2.54557 503H-66.6476L12.4508 393L-69 283H-0.1932L43.9137 347.827C45.0899 349.587 46.3641 350.956 47.7363 351.933C49.1085 352.911 50.4808 353.498 51.853 353.693C53.2252 353.693 54.5974 353.204 55.9696 352.227C57.5379 351.249 59.0081 349.782 60.3803 347.827L104.487 283H170.648L91.5492 393L173 503H108.016L62.1446 437.293Z" fill="white" fill-opacity="0.12"/>
<path d="M1449.86 76.7066C1451.23 78.6622 1452.8 80.2266 1454.56 81.4C1456.13 82.5733 1457.79 83.16 1459.56 83.16C1461.13 83.16 1462.79 82.5733 1464.56 81.4C1466.32 80.4222 1467.89 78.8578 1469.26 76.7066L1514.55 11L1578.65 11L1499.55 121L1581 231L1512.19 231L1468.09 166.173C1466.91 164.413 1465.64 163.044 1464.26 162.067C1462.89 161.089 1461.52 160.502 1460.15 160.307C1458.77 160.307 1457.4 160.796 1456.03 161.773C1454.46 162.751 1452.99 164.218 1451.62 166.173L1407.51 231L1341.35 231L1420.45 121L1339 11L1403.98 11L1449.86 76.7066Z" fill="white" fill-opacity="0.12"/>
<path d="M348.6 195L357.06 217.86C357.18 218.22 357.36 218.508 357.6 218.724C357.84 218.916 358.188 219.012 358.644 219.012C359.052 219.012 359.376 218.928 359.616 218.76C359.88 218.568 360.084 218.28 360.228 217.896L367.14 199.32C367.74 197.712 369.048 196.512 371.064 195.72C373.08 194.928 375.9 194.532 379.524 194.532C383.1 194.532 385.86 194.964 387.804 195.828C389.772 196.692 391.008 197.808 391.512 199.176L398.136 217.716C398.304 218.172 398.508 218.508 398.748 218.724C399.012 218.916 399.372 219.012 399.828 219.012C400.236 219.012 400.548 218.904 400.764 218.688C400.98 218.472 401.16 218.184 401.304 217.824L410.268 195H421.428L412.536 216.276C411.624 218.46 410.1 220.044 407.964 221.028C405.852 221.988 403.056 222.468 399.576 222.468C397.608 222.468 395.916 222.348 394.5 222.108C393.084 221.868 391.872 221.508 390.864 221.028C389.88 220.524 389.064 219.9 388.416 219.156C387.792 218.388 387.288 217.488 386.904 216.456L380.496 199.716C380.376 199.404 380.22 199.164 380.028 198.996C379.86 198.804 379.584 198.708 379.2 198.708C378.768 198.708 378.468 198.792 378.3 198.96C378.156 199.128 378.024 199.368 377.904 199.68L371.46 216.384C370.644 218.472 369.228 220.008 367.212 220.992C365.196 221.976 362.268 222.468 358.428 222.468C354.732 222.468 351.912 221.988 349.968 221.028C348.024 220.044 346.584 218.436 345.648 216.204L336.72 195H348.6ZM425.373 222V195H437.253V206.7H464.253V195H476.133V222H464.253V210.3H437.253V222H425.373ZM524.367 222L519.795 214.728H496.755L492.183 222H479.907L493.911 200.868C495.207 198.9 496.959 197.352 499.167 196.224C501.399 195.096 504.447 194.532 508.311 194.532C512.223 194.532 515.295 195.096 517.527 196.224C519.783 197.352 521.523 198.852 522.747 200.724L536.787 222H524.367ZM506.295 199.572L499.239 210.768H517.275L510.255 199.608C510.015 199.224 509.727 198.948 509.391 198.78C509.055 198.588 508.683 198.492 508.275 198.492C507.867 198.492 507.495 198.576 507.159 198.744C506.823 198.912 506.535 199.188 506.295 199.572ZM548.671 222V198.6H529.231V195H579.991V198.6H560.551V222H548.671ZM582.023 205.044C583.199 203.796 583.991 202.62 584.399 201.516C584.831 200.388 585.047 199.188 585.047 197.916V195H592.967V197.52C592.967 199.032 592.535 200.376 591.671 201.552C590.807 202.704 589.511 203.868 587.783 205.044H582.023ZM597.87 222V218.4H630.774C632.214 218.4 633.246 218.148 633.87 217.644C634.518 217.14 634.842 216.336 634.842 215.232C634.842 214.272 634.506 213.516 633.834 212.964C633.186 212.412 632.106 212.136 630.594 212.136H608.886C604.662 212.136 601.626 211.416 599.778 209.976C597.954 208.536 597.042 206.436 597.042 203.676C597.042 200.628 598.158 198.42 600.39 197.052C602.622 195.684 605.814 195 609.966 195H644.202V198.6H611.478C610.158 198.6 609.162 198.84 608.49 199.32C607.818 199.776 607.482 200.544 607.482 201.624C607.482 202.584 607.818 203.328 608.49 203.856C609.186 204.36 610.146 204.612 611.37 204.612H634.59C638.454 204.612 641.202 205.404 642.834 206.988C644.466 208.548 645.282 210.564 645.282 213.036C645.282 216.18 644.178 218.46 641.97 219.876C639.786 221.292 636.474 222 632.034 222H597.87ZM698.395 222.468H684.715C680.755 222.468 677.443 222.204 674.779 221.676C672.139 221.148 670.039 220.38 668.479 219.372C666.919 218.34 665.815 217.068 665.167 215.556C664.519 214.02 664.195 212.268 664.195 210.3V206.7C664.195 204.732 664.531 202.992 665.203 201.48C665.899 199.944 667.051 198.672 668.659 197.664C670.267 196.632 672.415 195.852 675.103 195.324C677.791 194.796 681.115 194.532 685.075 194.532H698.755C702.715 194.532 706.039 194.796 708.727 195.324C711.415 195.852 713.563 196.632 715.171 197.664C716.779 198.672 717.919 199.944 718.591 201.48C719.287 202.992 719.635 204.732 719.635 206.7V210.3C719.635 212.268 719.275 214.02 718.555 215.556C717.835 217.068 716.647 218.34 714.991 219.372C713.335 220.38 711.139 221.148 708.403 221.676C705.691 222.204 702.355 222.468 698.395 222.468ZM699.475 218.868C702.163 218.868 704.095 218.304 705.271 217.176C706.447 216.024 707.035 214.056 707.035 211.272V205.692C707.035 202.908 706.459 200.952 705.307 199.824C704.155 198.696 702.331 198.132 699.835 198.132H683.995C681.499 198.132 679.675 198.696 678.523 199.824C677.371 200.952 676.795 202.908 676.795 205.692V211.272C676.795 214.056 677.347 216.024 678.451 217.176C679.579 218.304 681.307 218.868 683.635 218.868H699.475ZM724.869 222V200.4C724.869 198.504 725.973 197.052 728.181 196.044C730.389 195.036 733.665 194.532 738.009 194.532C741.537 194.532 744.645 194.868 747.333 195.54C750.045 196.188 752.025 197.484 753.273 199.428L765.081 217.716C765.297 218.052 765.561 218.328 765.873 218.544C766.209 218.76 766.569 218.868 766.953 218.868C767.601 218.868 768.009 218.724 768.177 218.436C768.345 218.124 768.429 217.632 768.429 216.96V195H780.309V216.852C780.309 218.796 779.145 220.224 776.817 221.136C774.489 222.024 771.045 222.468 766.485 222.468C763.197 222.468 760.341 222.108 757.917 221.388C755.493 220.668 753.729 219.444 752.625 217.716L740.781 199.5C740.493 199.068 740.157 198.732 739.773 198.492C739.389 198.252 738.957 198.132 738.477 198.132C737.733 198.132 737.253 198.3 737.037 198.636C736.845 198.948 736.749 199.464 736.749 200.184V222H724.869ZM818.636 222V198.6H799.196V195H849.956V198.6H830.516V222H818.636ZM853.752 222V195H865.632V206.7H892.632V195H904.512V222H892.632V210.3H865.632V222H853.752ZM910.986 222V195H957.138V198.6H922.866V206.484H957.138V210.084H922.866V218.4H957.138V222H910.986ZM1019.79 222L1015.22 214.728H992.177L987.605 222H975.329L989.333 200.868C990.629 198.9 992.381 197.352 994.589 196.224C996.821 195.096 999.869 194.532 1003.73 194.532C1007.65 194.532 1010.72 195.096 1012.95 196.224C1015.21 197.352 1016.95 198.852 1018.17 200.724L1032.21 222H1019.79ZM1001.72 199.572L994.661 210.768H1012.7L1005.68 199.608C1005.44 199.224 1005.15 198.948 1004.81 198.78C1004.48 198.588 1004.11 198.492 1003.7 198.492C1003.29 198.492 1002.92 198.576 1002.58 198.744C1002.25 198.912 1001.96 199.188 1001.72 199.572ZM1066.82 211.38H1047.88V222H1036V195H1066.75C1070.13 195 1072.93 195.12 1075.13 195.36C1077.37 195.576 1079.13 195.972 1080.43 196.548C1081.72 197.1 1082.63 197.868 1083.16 198.852C1083.69 199.812 1083.95 201.024 1083.95 202.488V204.144C1083.95 205.392 1083.69 206.484 1083.16 207.42C1082.63 208.332 1081.72 209.076 1080.43 209.652C1079.15 210.228 1077.4 210.66 1075.17 210.948C1072.96 211.236 1070.18 211.38 1066.82 211.38ZM1047.88 198.6V207.96H1067.14C1068.68 207.96 1069.79 207.72 1070.49 207.24C1071.19 206.736 1071.53 205.812 1071.53 204.468V202.056C1071.53 200.76 1071.19 199.86 1070.49 199.356C1069.79 198.852 1068.68 198.6 1067.14 198.6H1047.88ZM1119.62 211.38H1100.69V222H1088.81V195H1119.55C1122.93 195 1125.73 195.12 1127.94 195.36C1130.17 195.576 1131.93 195.972 1133.23 196.548C1134.53 197.1 1135.44 197.868 1135.97 198.852C1136.49 199.812 1136.76 201.024 1136.76 202.488V204.144C1136.76 205.392 1136.49 206.484 1135.97 207.42C1135.44 208.332 1134.53 209.076 1133.23 209.652C1131.96 210.228 1130.21 210.66 1127.97 210.948C1125.77 211.236 1122.98 211.38 1119.62 211.38ZM1100.69 198.6V207.96H1119.95C1121.48 207.96 1122.6 207.72 1123.29 207.24C1123.99 206.736 1124.34 205.812 1124.34 204.468V202.056C1124.34 200.76 1123.99 199.86 1123.29 199.356C1122.6 198.852 1121.48 198.6 1119.95 198.6H1100.69ZM1167.82 203.856V202.056C1167.82 200.76 1167.51 199.8 1166.88 199.176C1166.26 198.552 1165.16 198.24 1163.57 198.24H1140.17V195H1165.77C1168.38 195 1170.6 195.132 1172.43 195.396C1174.25 195.636 1175.72 196.032 1176.82 196.584C1177.92 197.112 1178.73 197.82 1179.23 198.708C1179.74 199.596 1179.99 200.676 1179.99 201.948V203.748C1179.99 205.044 1179.74 206.16 1179.23 207.096C1178.73 208.008 1177.92 208.752 1176.82 209.328C1175.72 209.88 1174.25 210.288 1172.43 210.552C1170.6 210.792 1168.38 210.912 1165.77 210.912H1144.49V207.672H1163.93C1165.37 207.672 1166.38 207.36 1166.96 206.736C1167.53 206.112 1167.82 205.152 1167.82 203.856ZM1145.21 222V214.62H1155.11V222H1145.21Z" fill="#272727"/>
</g>
<defs>
<clipPath id="clip0_1308_6405">
<rect width="1511" height="514" fill="white"/>
</clipPath>
</defs>
</svg>
