<svg width="117" height="101" viewBox="0 0 117 101" fill="none" xmlns="http://www.w3.org/2000/svg">
<mask id="mask0_1872_5017" style="mask-type:alpha" maskUnits="userSpaceOnUse" x="0" y="0" width="74" height="84">
<path d="M35.7078 83.5714L73.6948 16.7143L0 0V69.1364L35.7078 83.5714Z" fill="#D9D9D9"/>
</mask>
<g mask="url(#mask0_1872_5017)">
<path d="M39.2363 70.8213V61.6838H50.5238V37.6755C50.5238 37.0385 50.3645 36.5607 50.046 36.2422C49.7673 35.8838 49.3293 35.7047 48.7321 35.7047H39.8335V26.0297H51.3002C54.6844 26.0297 57.3918 27.0649 59.4224 29.1352C61.4529 31.1658 62.4682 33.7537 62.4682 36.8991V61.6838H72.2029V70.8213H39.2363Z" fill="#2BEAE2"/>
</g>
<mask id="mask1_1872_5017" style="mask-type:alpha" maskUnits="userSpaceOnUse" x="30" y="26" width="87" height="75">
<path d="M30.3896 100.665L72.935 26.2109H113.201L117 100.665H30.3896Z" fill="#D9D9D9"/>
</mask>
<g mask="url(#mask1_1872_5017)">
<path d="M46.4538 76.8994V67.7619H57.7413V43.7536C57.7413 43.1166 57.582 42.6388 57.2635 42.3203C56.9848 41.962 56.5468 41.7828 55.9496 41.7828H47.051V32.1078H58.5176C61.9019 32.1078 64.6093 33.143 66.6399 35.2134C68.6704 37.2439 69.6857 39.8319 69.6857 42.9772V67.7619H79.4204V76.8994H46.4538Z" fill="#2BEAE2"/>
</g>
</svg>
