<svg width="117" height="101" viewBox="0 0 117 101" fill="none" xmlns="http://www.w3.org/2000/svg">
<mask id="mask0_1872_5038" style="mask-type:alpha" maskUnits="userSpaceOnUse" x="0" y="0" width="74" height="84">
<path d="M35.7078 83.5714L73.6948 16.7143L0 0V69.1364L35.7078 83.5714Z" fill="#D9D9D9"/>
</mask>
<g mask="url(#mask0_1872_5038)">
<path d="M75.6071 61.4449V70.8213H38.6391V63.5352C38.6391 61.6241 38.8382 59.912 39.2363 58.3991C39.6344 56.8861 40.3312 55.4926 41.3266 54.2185C42.3219 52.9046 43.6358 51.6505 45.2682 50.456C46.9405 49.2218 49.0307 47.9477 51.5391 46.6338L61.0349 41.6769C62.0701 41.1593 62.8066 40.6616 63.2446 40.1838C63.6826 39.6662 63.9015 39.0292 63.9015 38.2727C63.9015 37.1579 63.5233 36.4014 62.7668 36.0033C62.0103 35.6051 60.9951 35.406 59.721 35.406H39.5946V26.0297H60.7363C66.0715 26.0297 69.9733 27.0051 72.4418 28.9561C74.9103 30.8672 76.1446 33.4949 76.1446 36.8394C76.1446 38.7107 75.8659 40.3232 75.3085 41.6769C74.7511 43.0306 73.915 44.2449 72.8002 45.3199C71.7252 46.3949 70.3914 47.4301 68.7988 48.4255C67.2062 49.381 65.3747 50.4162 63.3043 51.531L54.6446 56.2491C53.2909 56.9657 52.415 57.6227 52.0168 58.2199C51.6585 58.8171 51.4793 59.494 51.4793 60.2505V61.4449H75.6071Z" fill="#2BEAE2"/>
</g>
<mask id="mask1_1872_5038" style="mask-type:alpha" maskUnits="userSpaceOnUse" x="30" y="26" width="87" height="75">
<path d="M30.3894 100.666L72.9349 26.2119H113.201L117 100.666H30.3894Z" fill="#D9D9D9"/>
</mask>
<g mask="url(#mask1_1872_5038)">
<path d="M82.8244 67.524V76.9004H45.8564V69.6143C45.8564 67.7032 46.0554 65.9911 46.4536 64.4782C46.8517 62.9652 47.5485 61.5717 48.5439 60.2976C49.5392 58.9837 50.8531 57.7296 52.4855 56.5351C54.1577 55.3009 56.248 54.0268 58.7563 52.7129L68.2522 47.756C69.2874 47.2384 70.0239 46.7407 70.4619 46.2629C70.8999 45.7453 71.1188 45.1083 71.1188 44.3518C71.1188 43.237 70.7406 42.4805 69.9841 42.0824C69.2276 41.6842 68.2124 41.4851 66.9383 41.4851H46.8119V32.1088H67.9536C73.2887 32.1088 77.1906 33.0842 79.6591 35.0352C82.1276 36.9463 83.3619 39.574 83.3619 42.9185C83.3619 44.7898 83.0832 46.4023 82.5258 47.756C81.9684 49.1097 81.1323 50.324 80.0174 51.399C78.9424 52.474 77.6086 53.5092 76.0161 54.5046C74.4235 55.4601 72.592 56.4953 70.5216 57.6101L61.8619 62.3282C60.5082 63.0448 59.6323 63.7018 59.2341 64.299C58.8758 64.8962 58.6966 65.5731 58.6966 66.3296V67.524H82.8244Z" fill="#2BEAE2"/>
</g>
</svg>
