<svg width="117" height="101" viewBox="0 0 117 101" fill="none" xmlns="http://www.w3.org/2000/svg">
<mask id="mask0_1872_5024" style="mask-type:alpha" maskUnits="userSpaceOnUse" x="0" y="0" width="74" height="84">
<path d="M35.7078 83.5714L73.6948 16.7143L0 0V69.1364L35.7078 83.5714Z" fill="#D9D9D9"/>
</mask>
<g mask="url(#mask0_1872_5024)">
<path d="M49.5682 43.7672L60.4974 35.5852H39.5349V26.0297H77.1001V33.7936L61.6918 44.9616H62.2293C65.0562 44.9616 67.4252 45.2403 69.3363 45.7977C71.2474 46.3153 72.7802 47.032 73.9349 47.9477C75.0895 48.8236 75.9057 49.8588 76.3835 51.0533C76.9011 52.2477 77.1599 53.5019 77.1599 54.8158V59.1755C77.1599 63.1171 75.7066 66.0435 72.8002 67.9546C69.8937 69.8657 65.6136 70.8213 59.9599 70.8213H40.4307V61.2657H61.5127C62.7867 61.2657 63.7025 61.0468 64.2599 60.6088C64.8571 60.131 65.1557 59.2153 65.1557 57.8616V56.2491C65.1557 54.8954 64.8372 54.0195 64.2002 53.6213C63.6029 53.1833 62.7469 52.9644 61.6321 52.9644H50.5835C49.0705 52.9644 47.9159 52.5662 47.1196 51.7699C46.3233 50.9736 45.9252 49.9583 45.9252 48.7241C45.9252 47.6889 46.2437 46.813 46.8807 46.0963C47.5576 45.3398 48.4534 44.5634 49.5682 43.7672Z" fill="#2BEAE2"/>
</g>
<mask id="mask1_1872_5024" style="mask-type:alpha" maskUnits="userSpaceOnUse" x="30" y="26" width="87" height="75">
<path d="M30.3896 100.665L72.935 26.2109H113.201L117 100.665H30.3896Z" fill="#D9D9D9"/>
</mask>
<g mask="url(#mask1_1872_5024)">
<path d="M56.7857 49.8453L67.7149 41.6633H46.7524V32.1078H84.3176V39.8717L68.9093 51.0397H69.4468C72.2736 51.0397 74.6426 51.3184 76.5537 51.8758C78.4648 52.3934 79.9977 53.1101 81.1523 54.0258C82.307 54.9018 83.1232 55.9369 83.6009 57.1314C84.1185 58.3258 84.3773 59.58 84.3773 60.8939V65.2536C84.3773 69.1953 82.9241 72.1216 80.0176 74.0328C77.1111 75.9439 72.8311 76.8994 67.1774 76.8994H47.6482V67.3439H68.7301C70.0042 67.3439 70.9199 67.1249 71.4773 66.6869C72.0746 66.2091 72.3732 65.2934 72.3732 63.9397V62.3272C72.3732 60.9735 72.0547 60.0976 71.4176 59.6994C70.8204 59.2615 69.9644 59.0425 68.8496 59.0425H57.801C56.288 59.0425 55.1334 58.6443 54.3371 57.848C53.5408 57.0518 53.1426 56.0365 53.1426 54.8022C53.1426 53.767 53.4612 52.8911 54.0982 52.1744C54.7751 51.418 55.6709 50.6416 56.7857 49.8453Z" fill="#2BEAE2"/>
</g>
</svg>
