<svg width="390" height="78" viewBox="0 0 390 78" fill="none" xmlns="http://www.w3.org/2000/svg">
<g clip-path="url(#clip0_223_3448)">
<rect width="390" height="78" fill="#0A0A0A"/>
<path d="M34.3153 56V20H62.6833V27.92H43.9153V34.544H62.6833V42.464H43.9153V56H34.3153ZM104.649 40.496C104.649 42.896 104.281 45.088 103.545 47.072C102.841 49.024 101.769 50.704 100.329 52.112C98.8892 53.488 97.0652 54.56 94.8572 55.328C92.6492 56.096 90.0892 56.48 87.1772 56.48H84.0092C81.0972 56.48 78.5372 56.096 76.3292 55.328C74.1212 54.56 72.2972 53.488 70.8572 52.112C69.4172 50.704 68.3292 49.024 67.5932 47.072C66.8892 45.088 66.5372 42.896 66.5372 40.496V35.504C66.5372 33.104 66.8892 30.928 67.5932 28.976C68.3292 26.992 69.4172 25.312 70.8572 23.936C72.2972 22.528 74.1212 21.44 76.3292 20.672C78.5372 19.904 81.0972 19.52 84.0092 19.52H87.1772C90.0892 19.52 92.6492 19.904 94.8572 20.672C97.0652 21.44 98.8892 22.528 100.329 23.936C101.769 25.312 102.841 26.992 103.545 28.976C104.281 30.928 104.649 33.104 104.649 35.504V40.496ZM76.6172 40.88C76.6172 43.728 77.1452 45.744 78.2012 46.928C79.2892 48.112 81.1292 48.704 83.7212 48.704H87.4652C90.0572 48.704 91.8812 48.112 92.9372 46.928C94.0252 45.744 94.5692 43.728 94.5692 40.88V35.024C94.5692 32.176 94.0252 30.176 92.9372 29.024C91.8812 27.84 90.0572 27.248 87.4652 27.248H83.7212C81.1292 27.248 79.2892 27.84 78.2012 29.024C77.1452 30.176 76.6172 32.176 76.6172 35.024V40.88ZM144.25 56H133.498L123.946 45.008C123.146 44.08 122.586 43.168 122.266 42.272C121.946 41.376 121.786 40.576 121.786 39.872C121.786 38.304 122.266 37.12 123.226 36.32C124.186 35.488 125.482 35.072 127.114 35.072H131.866C132.922 35.072 133.706 34.784 134.218 34.208C134.73 33.6 134.986 32.848 134.986 31.952V30.368C134.986 29.408 134.73 28.672 134.218 28.16C133.738 27.648 132.922 27.392 131.77 27.392H119.29V56H109.69V20H130.81C135.45 20 138.874 20.768 141.082 22.304C143.29 23.84 144.394 26.32 144.394 29.744V31.808C144.394 33.312 144.09 34.656 143.482 35.84C142.874 36.992 142.058 37.968 141.034 38.768C140.042 39.568 138.858 40.192 137.482 40.64C136.138 41.056 134.714 41.264 133.21 41.264H132.058L144.25 56ZM147.256 56L149.512 30.272C149.832 26.432 150.872 23.664 152.632 21.968C154.424 20.272 156.68 19.424 159.4 19.424C162.312 19.424 164.616 20.32 166.312 22.112C168.04 23.872 169.144 26.288 169.624 29.36L172.456 47.264C172.52 47.648 172.616 47.936 172.744 48.128C172.904 48.32 173.144 48.416 173.464 48.416C173.784 48.416 174.024 48.304 174.184 48.08C174.344 47.856 174.44 47.552 174.472 47.168L177.208 29.312C177.656 26.272 178.728 23.872 180.424 22.112C182.152 20.32 184.456 19.424 187.336 19.424C190.376 19.424 192.632 20.288 194.104 22.016C195.608 23.712 196.52 26.464 196.84 30.272L199.096 56H189.832L187.912 28.88C187.88 28.56 187.816 28.288 187.72 28.064C187.656 27.84 187.464 27.728 187.144 27.728C186.888 27.728 186.68 27.84 186.52 28.064C186.36 28.256 186.264 28.496 186.232 28.784L183.016 48.032C182.6 50.592 181.56 52.656 179.896 54.224C178.264 55.792 176.104 56.576 173.416 56.576C170.632 56.576 168.408 55.776 166.744 54.176C165.08 52.544 164.04 50.48 163.624 47.984L160.264 28.832C160.2 28.48 160.088 28.208 159.928 28.016C159.768 27.824 159.56 27.728 159.304 27.728C158.984 27.728 158.76 27.84 158.632 28.064C158.536 28.288 158.472 28.576 158.44 28.928L156.52 56H147.256ZM218.879 56.624C213.503 56.624 209.663 55.424 207.359 53.024C205.055 50.624 203.903 47.28 203.903 42.992V20H213.503V43.904C213.503 45.632 213.887 46.912 214.655 47.744C215.455 48.544 216.815 48.944 218.735 48.944H224.207C225.999 48.944 227.295 48.544 228.095 47.744C228.927 46.912 229.343 45.632 229.343 43.904V20H238.943V42.992C238.943 45.136 238.687 47.056 238.175 48.752C237.695 50.448 236.879 51.888 235.727 53.072C234.607 54.224 233.087 55.104 231.167 55.712C229.247 56.32 226.879 56.624 224.063 56.624H218.879ZM244.925 56V20H254.525V48.08H272.813V56H244.925ZM306.738 56L303.906 48.464H287.058L284.178 56H274.482L286.434 26.96C287.362 24.688 288.498 22.864 289.842 21.488C291.218 20.112 293.106 19.424 295.506 19.424C298.002 19.424 299.954 20.112 301.362 21.488C302.802 22.832 303.97 24.624 304.866 26.864L316.722 56H306.738ZM294.69 28.688L289.938 41.024H301.074L296.418 28.688C296.322 28.464 296.21 28.272 296.082 28.112C295.986 27.92 295.81 27.824 295.554 27.824C295.33 27.824 295.154 27.904 295.026 28.064C294.898 28.224 294.786 28.432 294.69 28.688ZM330.397 56V48.656H339.469V29.36C339.469 28.848 339.341 28.464 339.085 28.208C338.861 27.92 338.509 27.776 338.029 27.776H330.877V20H340.093C342.813 20 344.989 20.832 346.621 22.496C348.253 24.128 349.069 26.208 349.069 28.736V48.656H356.893V56H330.397Z" fill="#D11616"/>
</g>
<defs>
<clipPath id="clip0_223_3448">
<rect width="390" height="78" fill="white"/>
</clipPath>
</defs>
</svg>
