<svg width="117" height="13" viewBox="0 0 117 13" fill="none" xmlns="http://www.w3.org/2000/svg">
<path d="M8.1288 9.11733C8.04374 9.00178 7.94654 8.90933 7.83718 8.84C7.73998 8.77067 7.63669 8.736 7.52734 8.736C7.43013 8.736 7.32685 8.77067 7.2175 8.84C7.10814 8.89778 7.01093 8.99022 6.92588 9.11733L4.11908 13H0.145808L5.0486 6.5L0 0H4.26488L6.99878 3.83067C7.07169 3.93467 7.15067 4.01556 7.23572 4.07333C7.32078 4.13111 7.40583 4.16578 7.49089 4.17733C7.57594 4.17733 7.661 4.14845 7.74605 4.09067C7.84326 4.03289 7.93439 3.94622 8.01944 3.83067L10.7533 0H14.8542L9.9514 6.5L15 13H10.9721L8.1288 9.11733Z" fill="#0A0A0A"/>
<path d="M28.1288 9.11733C28.0437 9.00178 27.9465 8.90933 27.8372 8.84C27.74 8.77067 27.6367 8.736 27.5273 8.736C27.4301 8.736 27.3269 8.77067 27.2175 8.84C27.1081 8.89778 27.0109 8.99022 26.9259 9.11733L24.1191 13H20.1458L25.0486 6.5L20 0H24.2649L26.9988 3.83067C27.0717 3.93467 27.1507 4.01556 27.2357 4.07333C27.3208 4.13111 27.4058 4.16578 27.4909 4.17733C27.5759 4.17733 27.661 4.14845 27.7461 4.09067C27.8433 4.03289 27.9344 3.94622 28.0194 3.83067L30.7533 0H34.8542L29.9514 6.5L35 13H30.9721L28.1288 9.11733Z" fill="#0A0A0A"/>
<path d="M49.1288 9.11733C49.0437 9.00178 48.9465 8.90933 48.8372 8.84C48.74 8.77067 48.6367 8.736 48.5273 8.736C48.4301 8.736 48.3269 8.77067 48.2175 8.84C48.1081 8.89778 48.0109 8.99022 47.9259 9.11733L45.1191 13H41.1458L46.0486 6.5L41 0H45.2649L47.9988 3.83067C48.0717 3.93467 48.1507 4.01556 48.2357 4.07333C48.3208 4.13111 48.4058 4.16578 48.4909 4.17733C48.5759 4.17733 48.661 4.14845 48.7461 4.09067C48.8433 4.03289 48.9344 3.94622 49.0194 3.83067L51.7533 0H55.8542L50.9514 6.5L56 13H51.9721L49.1288 9.11733Z" fill="#0A0A0A"/>
<path d="M69.1288 9.11733C69.0437 9.00178 68.9465 8.90933 68.8372 8.84C68.74 8.77067 68.6367 8.736 68.5273 8.736C68.4301 8.736 68.3269 8.77067 68.2175 8.84C68.1081 8.89778 68.0109 8.99022 67.9259 9.11733L65.1191 13H61.1458L66.0486 6.5L61 0H65.2649L67.9988 3.83067C68.0717 3.93467 68.1507 4.01556 68.2357 4.07333C68.3208 4.13111 68.4058 4.16578 68.4909 4.17733C68.5759 4.17733 68.661 4.14845 68.7461 4.09067C68.8433 4.03289 68.9344 3.94622 69.0194 3.83067L71.7533 0H75.8542L70.9514 6.5L76 13H71.9721L69.1288 9.11733Z" fill="#0A0A0A"/>
<path d="M90.1288 9.11733C90.0437 9.00178 89.9465 8.90933 89.8372 8.84C89.74 8.77067 89.6367 8.736 89.5273 8.736C89.4301 8.736 89.3269 8.77067 89.2175 8.84C89.1081 8.89778 89.0109 8.99022 88.9259 9.11733L86.1191 13H82.1458L87.0486 6.5L82 0H86.2649L88.9988 3.83067C89.0717 3.93467 89.1507 4.01556 89.2357 4.07333C89.3208 4.13111 89.4058 4.16578 89.4909 4.17733C89.5759 4.17733 89.661 4.14845 89.7461 4.09067C89.8433 4.03289 89.9344 3.94622 90.0194 3.83067L92.7533 0H96.8542L91.9514 6.5L97 13H92.9721L90.1288 9.11733Z" fill="#0A0A0A"/>
<path d="M110.129 9.11733C110.044 9.00178 109.947 8.90933 109.837 8.84C109.74 8.77067 109.637 8.736 109.527 8.736C109.43 8.736 109.327 8.77067 109.217 8.84C109.108 8.89778 109.011 8.99022 108.926 9.11733L106.119 13H102.146L107.049 6.5L102 0H106.265L108.999 3.83067C109.072 3.93467 109.151 4.01556 109.236 4.07333C109.321 4.13111 109.406 4.16578 109.491 4.17733C109.576 4.17733 109.661 4.14845 109.746 4.09067C109.843 4.03289 109.934 3.94622 110.019 3.83067L112.753 0H116.854L111.951 6.5L117 13H112.972L110.129 9.11733Z" fill="#0A0A0A"/>
</svg>
