<svg width="390" height="196" viewBox="0 0 390 196" fill="none" xmlns="http://www.w3.org/2000/svg">
<g clip-path="url(#clip0_218_4692)">
<rect width="390" height="196" fill="white"/>
<rect x="-2" width="431" height="196" fill="#D60D0D"/>
<mask id="mask0_218_4692" style="mask-type:alpha" maskUnits="userSpaceOnUse" x="-39" y="0" width="456" height="30">
<path d="M417 30H-39V0H417V30Z" fill="#D9D9D9"/>
</mask>
<g mask="url(#mask0_218_4692)">
<path d="M-19.4051 61.0166V2.0379H29.8224V15.0132H-4.07065V25.2362H29.8224V37.8183H-4.07065V48.0413H29.8224V61.0166H-19.4051ZM70.1676 43.4016C69.8006 42.8774 69.3812 42.458 68.9093 42.1434C68.4899 41.8289 68.0443 41.6716 67.5725 41.6716C67.1531 41.6716 66.7075 41.8289 66.2356 42.1434C65.7638 42.4055 65.3444 42.8249 64.9774 43.4016L52.8671 61.0166H35.724L56.8777 31.5273L35.0949 2.0379H53.4962L65.292 19.417C65.6065 19.8888 65.9473 20.2558 66.3143 20.5179C66.6813 20.78 67.0482 20.9373 67.4152 20.9897C67.7822 20.9897 68.1492 20.8587 68.5161 20.5965C68.9356 20.3344 69.3287 19.9412 69.6957 19.417L81.4915 2.0379H99.1851L78.0314 31.5273L99.8142 61.0166H82.4351L70.1676 43.4016ZM159.011 18.7092V24.5284C159.011 30.9244 157.071 35.3281 153.192 37.7397C149.312 40.1512 143.31 41.357 135.184 41.357H121.422V61.0166H105.694V2.0379H135.184C143.31 2.0379 149.312 3.32233 153.192 5.89118C157.071 8.46003 159.011 12.7327 159.011 18.7092ZM143.283 24.0566V19.417C143.283 17.5821 142.707 16.1666 141.553 15.1705C140.452 14.122 138.486 13.5977 135.655 13.5977H121.422V29.7972H135.655C138.486 29.7972 140.452 29.2992 141.553 28.3031C142.707 27.2546 143.283 25.8391 143.283 24.0566ZM166.9 61.0166V2.0379H182.628V48.0413H212.589V61.0166H166.9ZM277.366 35.6164C277.366 39.5484 276.764 43.1395 275.558 46.3899C274.404 49.5878 272.648 52.3402 270.289 54.6469C267.93 56.9012 264.942 58.6575 261.324 59.9157C257.707 61.1739 253.513 61.803 248.742 61.803H243.552C238.781 61.803 234.587 61.1739 230.97 59.9157C227.353 58.6575 224.364 56.9012 222.005 54.6469C219.646 52.3402 217.864 49.5878 216.658 46.3899C215.504 43.1395 214.928 39.5484 214.928 35.6164V27.4381C214.928 23.5061 215.504 19.9412 216.658 16.7433C217.864 13.4929 219.646 10.7405 222.005 8.48624C224.364 6.17952 227.353 4.39705 230.97 3.13884C234.587 1.88063 238.781 1.25152 243.552 1.25152H248.742C253.513 1.25152 257.707 1.88063 261.324 3.13884C264.942 4.39705 267.93 6.17952 270.289 8.48624C272.648 10.7405 274.404 13.4929 275.558 16.7433C276.764 19.9412 277.366 23.5061 277.366 27.4381V35.6164ZM231.442 36.2455C231.442 40.9114 232.307 44.2142 234.037 46.154C235.819 48.0937 238.834 49.0636 243.08 49.0636H249.214C253.46 49.0636 256.449 48.0937 258.179 46.154C259.961 44.2142 260.852 40.9114 260.852 36.2455V26.6517C260.852 21.9858 259.961 18.7092 258.179 16.8219C256.449 14.8822 253.46 13.9123 249.214 13.9123H243.08C238.834 13.9123 235.819 14.8822 234.037 16.8219C232.307 18.7092 231.442 21.9858 231.442 26.6517V36.2455ZM342.245 61.0166H324.63L308.981 43.0084C307.67 41.4881 306.753 39.994 306.229 38.5261C305.704 37.0581 305.442 35.7475 305.442 34.5941C305.442 32.0253 306.229 30.0856 307.801 28.7749C309.374 27.4119 311.497 26.7303 314.171 26.7303H321.956C323.686 26.7303 324.971 26.2585 325.809 25.3148C326.648 24.3187 327.068 23.0867 327.068 21.6188V19.0238C327.068 17.451 326.648 16.2452 325.809 15.4064C325.023 14.5676 323.686 14.1482 321.799 14.1482H301.353V61.0166H285.625V2.0379H320.226C327.828 2.0379 333.437 3.29612 337.055 5.81254C340.672 8.32896 342.481 12.3919 342.481 18.0015V21.3829C342.481 23.8469 341.983 26.0488 340.987 27.9885C339.991 29.8759 338.654 31.4748 336.976 32.7855C335.351 34.0961 333.411 35.1184 331.157 35.8524C328.955 36.5339 326.622 36.8747 324.158 36.8747H322.271L342.245 61.0166ZM349.135 61.0166V2.0379H398.362V15.0132H364.469V25.2362H398.362V37.8183H364.469V48.0413H398.362V61.0166H349.135Z" fill="black" fill-opacity="0.2"/>
</g>
<mask id="mask1_218_4692" style="mask-type:alpha" maskUnits="userSpaceOnUse" x="-16" y="166" width="446" height="30">
<path d="M430 196H-16V166H430V196Z" fill="#D9D9D9"/>
</mask>
<g mask="url(#mask1_218_4692)">
<path d="M1.79432 192.847V135.161H49.9423V147.852H16.7925V157.851H49.9423V170.157H16.7925V180.156H49.9423V192.847H1.79432ZM89.4027 175.618C89.0437 175.105 88.6335 174.695 88.172 174.387C87.7618 174.08 87.326 173.926 86.8645 173.926C86.4543 173.926 86.0185 174.08 85.557 174.387C85.0955 174.644 84.6853 175.054 84.3264 175.618L72.4816 192.847H55.7144L76.4042 164.004L55.0991 135.161H73.097L84.634 152.159C84.9417 152.621 85.275 152.98 85.6339 153.236C85.9928 153.492 86.3518 153.646 86.7107 153.698C87.0696 153.698 87.4285 153.569 87.7875 153.313C88.1977 153.057 88.5823 152.672 88.9412 152.159L100.478 135.161H117.784L97.094 164.004L118.399 192.847H101.401L89.4027 175.618ZM176.298 151.467V157.159C176.298 163.414 174.401 167.722 170.606 170.08C166.812 172.439 160.941 173.618 152.993 173.618H139.533V192.847H124.15V135.161H152.993C160.941 135.161 166.812 136.418 170.606 138.93C174.401 141.443 176.298 145.622 176.298 151.467ZM160.915 156.697V152.159C160.915 150.365 160.351 148.98 159.223 148.006C158.146 146.98 156.223 146.468 153.454 146.468H139.533V162.312H153.454C156.223 162.312 158.146 161.825 159.223 160.851C160.351 159.825 160.915 158.441 160.915 156.697ZM184.014 192.847V135.161H199.397V180.156H228.701V192.847H184.014ZM292.058 168.004C292.058 171.849 291.468 175.362 290.289 178.541C289.161 181.669 287.443 184.361 285.136 186.617C282.828 188.822 279.905 190.539 276.367 191.77C272.829 193.001 268.727 193.616 264.061 193.616H258.985C254.319 193.616 250.217 193.001 246.679 191.77C243.141 190.539 240.218 188.822 237.91 186.617C235.603 184.361 233.86 181.669 232.68 178.541C231.552 175.362 230.988 171.849 230.988 168.004V160.005C230.988 156.159 231.552 152.672 232.68 149.544C233.86 146.365 235.603 143.673 237.91 141.468C240.218 139.212 243.141 137.469 246.679 136.238C250.217 135.008 254.319 134.392 258.985 134.392H264.061C268.727 134.392 272.829 135.008 276.367 136.238C279.905 137.469 282.828 139.212 285.136 141.468C287.443 143.673 289.161 146.365 290.289 149.544C291.468 152.672 292.058 156.159 292.058 160.005V168.004ZM247.14 168.619C247.14 173.182 247.986 176.413 249.678 178.31C251.422 180.207 254.37 181.156 258.523 181.156H264.523C268.676 181.156 271.599 180.207 273.291 178.31C275.034 176.413 275.906 173.182 275.906 168.619V159.235C275.906 154.672 275.034 151.467 273.291 149.621C271.599 147.724 268.676 146.775 264.523 146.775H258.523C254.37 146.775 251.422 147.724 249.678 149.621C247.986 151.467 247.14 154.672 247.14 159.235V168.619ZM355.513 192.847H338.285L322.979 175.233C321.697 173.746 320.8 172.285 320.287 170.849C319.774 169.414 319.518 168.132 319.518 167.004C319.518 164.491 320.287 162.594 321.825 161.312C323.363 159.979 325.44 159.312 328.055 159.312H335.67C337.362 159.312 338.618 158.851 339.438 157.928C340.259 156.954 340.669 155.749 340.669 154.313V151.775C340.669 150.236 340.259 149.057 339.438 148.237C338.669 147.416 337.362 147.006 335.516 147.006H315.518V192.847H300.135V135.161H333.978C341.413 135.161 346.899 136.392 350.437 138.853C353.975 141.314 355.744 145.288 355.744 150.775V154.082C355.744 156.492 355.257 158.646 354.283 160.543C353.309 162.389 352.001 163.953 350.36 165.235C348.771 166.517 346.873 167.516 344.669 168.234C342.515 168.901 340.233 169.234 337.823 169.234H335.977L355.513 192.847ZM362.252 192.847V135.161H410.4V147.852H377.251V157.851H410.4V170.157H377.251V180.156H410.4V192.847H362.252Z" fill="black" fill-opacity="0.2"/>
</g>
</g>
<defs>
<clipPath id="clip0_218_4692">
<rect width="390" height="196" fill="white"/>
</clipPath>
</defs>
</svg>
