<svg width="390" height="102" viewBox="0 0 390 102" fill="none" xmlns="http://www.w3.org/2000/svg">
<g clip-path="url(#clip0_219_4725)">
<path d="M21.34 36V9H43.876V14.94H28.36V19.62H43.876V25.38H28.36V30.06H43.876V36H21.34ZM70.3017 36L68.1777 30.348H55.5417L53.3817 36H46.1097L55.0737 14.22C55.7697 12.516 56.6217 11.148 57.6297 10.116C58.6617 9.084 60.0777 8.568 61.8777 8.568C63.7497 8.568 65.2137 9.084 66.2697 10.116C67.3497 11.124 68.2257 12.468 68.8977 14.148L77.7897 36H70.3017ZM61.2657 15.516L57.7017 24.768H66.0537L62.5617 15.516C62.4897 15.348 62.4057 15.204 62.3097 15.084C62.2377 14.94 62.1057 14.868 61.9137 14.868C61.7457 14.868 61.6137 14.928 61.5177 15.048C61.4217 15.168 61.3377 15.324 61.2657 15.516ZM106.217 36H98.153L90.989 27.756C90.389 27.06 89.969 26.376 89.729 25.704C89.489 25.032 89.369 24.432 89.369 23.904C89.369 22.728 89.729 21.84 90.449 21.24C91.169 20.616 92.141 20.304 93.365 20.304H96.929C97.721 20.304 98.309 20.088 98.693 19.656C99.077 19.2 99.269 18.636 99.269 17.964V16.776C99.269 16.056 99.077 15.504 98.693 15.12C98.333 14.736 97.721 14.544 96.857 14.544H87.497V36H80.297V9H96.137C99.617 9 102.185 9.576 103.841 10.728C105.497 11.88 106.325 13.74 106.325 16.308V17.856C106.325 18.984 106.097 19.992 105.641 20.88C105.185 21.744 104.573 22.476 103.805 23.076C103.061 23.676 102.173 24.144 101.141 24.48C100.133 24.792 99.065 24.948 97.937 24.948H97.073L106.217 36ZM109.371 36V16.2C109.371 14.976 109.575 13.884 109.983 12.924C110.391 11.964 110.919 11.172 111.567 10.548C112.239 9.9 113.019 9.408 113.907 9.072C114.819 8.736 115.755 8.568 116.715 8.568C119.019 8.568 120.819 9.192 122.115 10.44C123.435 11.664 124.503 13.284 125.319 15.3L131.187 29.628C131.259 29.796 131.331 29.964 131.403 30.132C131.499 30.276 131.643 30.348 131.835 30.348C132.075 30.348 132.231 30.288 132.303 30.168C132.399 30.024 132.447 29.832 132.447 29.592V9H139.647V28.836C139.647 30.108 139.443 31.224 139.035 32.184C138.627 33.144 138.087 33.948 137.415 34.596C136.767 35.22 135.987 35.688 135.075 36C134.187 36.312 133.263 36.468 132.303 36.468C129.999 36.468 128.199 35.868 126.903 34.668C125.631 33.468 124.563 31.824 123.699 29.736L117.831 15.408C117.759 15.24 117.675 15.084 117.579 14.94C117.507 14.772 117.375 14.688 117.183 14.688C116.943 14.688 116.775 14.76 116.679 14.904C116.607 15.024 116.571 15.204 116.571 15.444V36H109.371ZM164.017 36.468C159.985 36.468 157.105 35.568 155.377 33.768C153.649 31.968 152.785 29.46 152.785 26.244V9H159.985V26.928C159.985 28.224 160.273 29.184 160.849 29.808C161.449 30.408 162.469 30.708 163.909 30.708H168.013C169.357 30.708 170.329 30.408 170.929 29.808C171.553 29.184 171.865 28.224 171.865 26.928V9H179.065V26.244C179.065 27.852 178.873 29.292 178.489 30.564C178.129 31.836 177.517 32.916 176.653 33.804C175.813 34.668 174.673 35.328 173.233 35.784C171.793 36.24 170.017 36.468 167.905 36.468H164.017ZM207.959 16.632V19.296C207.959 22.224 207.071 24.24 205.295 25.344C203.519 26.448 200.771 27 197.051 27H190.751V36H183.551V9H197.051C200.771 9 203.519 9.588 205.295 10.764C207.071 11.94 207.959 13.896 207.959 16.632ZM200.759 19.08V16.956C200.759 16.116 200.495 15.468 199.967 15.012C199.463 14.532 198.563 14.292 197.267 14.292H190.751V21.708H197.267C198.563 21.708 199.463 21.48 199.967 21.024C200.495 20.544 200.759 19.896 200.759 19.08ZM220.39 36V14.94H210.13V9H237.85V14.94H227.59V36H220.39ZM267.344 24.372C267.344 26.172 267.068 27.816 266.516 29.304C265.988 30.768 265.184 32.028 264.104 33.084C263.024 34.116 261.656 34.92 260 35.496C258.344 36.072 256.424 36.36 254.24 36.36H251.864C249.68 36.36 247.76 36.072 246.104 35.496C244.448 34.92 243.08 34.116 242 33.084C240.92 32.028 240.104 30.768 239.552 29.304C239.024 27.816 238.76 26.172 238.76 24.372V20.628C238.76 18.828 239.024 17.196 239.552 15.732C240.104 14.244 240.92 12.984 242 11.952C243.08 10.896 244.448 10.08 246.104 9.504C247.76 8.928 249.68 8.64 251.864 8.64H254.24C256.424 8.64 258.344 8.928 260 9.504C261.656 10.08 263.024 10.896 264.104 11.952C265.184 12.984 265.988 14.244 266.516 15.732C267.068 17.196 267.344 18.828 267.344 20.628V24.372ZM246.32 24.66C246.32 26.796 246.716 28.308 247.508 29.196C248.324 30.084 249.704 30.528 251.648 30.528H254.456C256.4 30.528 257.768 30.084 258.56 29.196C259.376 28.308 259.784 26.796 259.784 24.66V20.268C259.784 18.132 259.376 16.632 258.56 15.768C257.768 14.88 256.4 14.436 254.456 14.436H251.648C249.704 14.436 248.324 14.88 247.508 15.768C246.716 16.632 246.32 18.132 246.32 20.268V24.66ZM284.634 31.86C282.402 31.86 280.758 31.416 279.702 30.528C278.67 29.616 278.154 28.476 278.154 27.108C278.154 26.172 278.37 25.26 278.802 24.372C279.258 23.46 280.002 22.356 281.034 21.06L287.55 12.888C288.582 11.592 289.71 10.56 290.934 9.792C292.182 9.024 293.526 8.64 294.966 8.64H295.902C297.558 8.64 298.95 9.156 300.078 10.188C301.23 11.22 301.806 12.852 301.806 15.084V26.352H305.946V31.86H301.806V36H294.786V31.86H284.634ZM286.722 26.352H294.786V15.66C294.786 15.42 294.726 15.252 294.606 15.156C294.486 15.036 294.33 14.976 294.138 14.976C293.994 14.976 293.862 15.024 293.742 15.12C293.646 15.192 293.55 15.3 293.454 15.444L286.074 24.912C285.978 25.056 285.894 25.188 285.822 25.308C285.774 25.428 285.75 25.548 285.75 25.668C285.75 25.86 285.81 26.028 285.93 26.172C286.074 26.292 286.338 26.352 286.722 26.352ZM323.275 27.936C323.107 27.696 322.915 27.504 322.699 27.36C322.507 27.216 322.303 27.144 322.087 27.144C321.895 27.144 321.691 27.216 321.475 27.36C321.259 27.48 321.067 27.672 320.899 27.936L315.355 36H307.507L317.191 22.5L307.219 9H315.643L321.043 16.956C321.187 17.172 321.343 17.34 321.511 17.46C321.679 17.58 321.847 17.652 322.015 17.676C322.183 17.676 322.351 17.616 322.519 17.496C322.711 17.376 322.891 17.196 323.059 16.956L328.459 9H336.559L326.875 22.5L336.847 36H328.891L323.275 27.936Z" fill="#191818"/>
<path d="M238.129 49.1173C238.044 49.0018 237.947 48.9093 237.837 48.84C237.74 48.7707 237.637 48.736 237.527 48.736C237.43 48.736 237.327 48.7707 237.217 48.84C237.108 48.8978 237.011 48.9902 236.926 49.1173L234.119 53H230.146L235.049 46.5L230 40H234.265L236.999 43.8307C237.072 43.9347 237.151 44.0156 237.236 44.0733C237.321 44.1311 237.406 44.1658 237.491 44.1773C237.576 44.1773 237.661 44.1484 237.746 44.0907C237.843 44.0329 237.934 43.9462 238.019 43.8307L240.753 40H244.854L239.951 46.5L245 53H240.972L238.129 49.1173Z" fill="#46FCB7"/>
<path d="M258.129 49.1173C258.044 49.0018 257.947 48.9093 257.837 48.84C257.74 48.7707 257.637 48.736 257.527 48.736C257.43 48.736 257.327 48.7707 257.217 48.84C257.108 48.8978 257.011 48.9902 256.926 49.1173L254.119 53H250.146L255.049 46.5L250 40H254.265L256.999 43.8307C257.072 43.9347 257.151 44.0156 257.236 44.0733C257.321 44.1311 257.406 44.1658 257.491 44.1773C257.576 44.1773 257.661 44.1484 257.746 44.0907C257.843 44.0329 257.934 43.9462 258.019 43.8307L260.753 40H264.854L259.951 46.5L265 53H260.972L258.129 49.1173Z" fill="#46FCB7"/>
<path d="M279.129 49.1173C279.044 49.0018 278.947 48.9093 278.837 48.84C278.74 48.7707 278.637 48.736 278.527 48.736C278.43 48.736 278.327 48.7707 278.217 48.84C278.108 48.8978 278.011 48.9902 277.926 49.1173L275.119 53H271.146L276.049 46.5L271 40H275.265L277.999 43.8307C278.072 43.9347 278.151 44.0156 278.236 44.0733C278.321 44.1311 278.406 44.1658 278.491 44.1773C278.576 44.1773 278.661 44.1484 278.746 44.0907C278.843 44.0329 278.934 43.9462 279.019 43.8307L281.753 40H285.854L280.951 46.5L286 53H281.972L279.129 49.1173Z" fill="#46FCB7"/>
<path d="M299.129 49.1173C299.044 49.0018 298.947 48.9093 298.837 48.84C298.74 48.7707 298.637 48.736 298.527 48.736C298.43 48.736 298.327 48.7707 298.217 48.84C298.108 48.8978 298.011 48.9902 297.926 49.1173L295.119 53H291.146L296.049 46.5L291 40H295.265L297.999 43.8307C298.072 43.9347 298.151 44.0156 298.236 44.0733C298.321 44.1311 298.406 44.1658 298.491 44.1773C298.576 44.1773 298.661 44.1484 298.746 44.0907C298.843 44.0329 298.934 43.9462 299.019 43.8307L301.753 40H305.854L300.951 46.5L306 53H301.972L299.129 49.1173Z" fill="#46FCB7"/>
<path d="M320.129 49.1173C320.044 49.0018 319.947 48.9093 319.837 48.84C319.74 48.7707 319.637 48.736 319.527 48.736C319.43 48.736 319.327 48.7707 319.217 48.84C319.108 48.8978 319.011 48.9902 318.926 49.1173L316.119 53H312.146L317.049 46.5L312 40H316.265L318.999 43.8307C319.072 43.9347 319.151 44.0156 319.236 44.0733C319.321 44.1311 319.406 44.1658 319.491 44.1773C319.576 44.1773 319.661 44.1484 319.746 44.0907C319.843 44.0329 319.934 43.9462 320.019 43.8307L322.753 40H326.854L321.951 46.5L327 53H322.972L320.129 49.1173Z" fill="#46FCB7"/>
<path d="M340.129 49.1173C340.044 49.0018 339.947 48.9093 339.837 48.84C339.74 48.7707 339.637 48.736 339.527 48.736C339.43 48.736 339.327 48.7707 339.217 48.84C339.108 48.8978 339.011 48.9902 338.926 49.1173L336.119 53H332.146L337.049 46.5L332 40H336.265L338.999 43.8307C339.072 43.9347 339.151 44.0156 339.236 44.0733C339.321 44.1311 339.406 44.1658 339.491 44.1773C339.576 44.1773 339.661 44.1484 339.746 44.0907C339.843 44.0329 339.934 43.9462 340.019 43.8307L342.753 40H346.854L341.951 46.5L347 53H342.972L340.129 49.1173Z" fill="#46FCB7"/>
<path d="M82.5274 88.444L84.2616 89.4402L84.2661 89.4324L84.2705 89.4245L82.5274 88.444ZM80.0074 90.628L79.1243 88.8334L79.1129 88.8391L80.0074 90.628ZM75.3594 91.944L75.6449 93.9235L75.6542 93.9222L75.6635 93.9207L75.3594 91.944ZM50.8874 91.944L50.5832 93.9207L50.5925 93.9222L50.6019 93.9235L50.8874 91.944ZM46.2114 90.628L45.3169 92.4169L45.3283 92.4225L46.2114 90.628ZM43.7194 88.444L41.9762 89.4245L41.9806 89.4324L41.9851 89.4402L43.7194 88.444ZM42.9634 71V69H40.9634V71H42.9634ZM52.2034 71H54.2034V69H52.2034V71ZM53.2954 88.612L51.9595 90.1005L51.9702 90.1101L51.9811 90.1195L53.2954 88.612ZM72.9514 88.612L74.2656 90.1195L74.2765 90.1101L74.2872 90.1005L72.9514 88.612ZM75.3034 71.784L74.2468 70.0859L74.2468 70.0859L75.3034 71.784ZM87.7914 71H89.7914V69H87.7914V71ZM87.7914 73.772V75.772H89.7914V73.772H87.7914ZM83.6194 74.136L82.2051 72.7218L83.6194 74.136ZM81.2834 75.004V85.336H85.2834V75.004H81.2834ZM81.2834 85.336C81.2834 86.2186 81.0969 86.9077 80.7842 87.4635L84.2705 89.4245C84.9659 88.1883 85.2834 86.8054 85.2834 85.336H81.2834ZM80.7931 87.4478C80.5382 87.8916 80.048 88.379 79.1243 88.8335L80.8904 92.4225C82.3187 91.7197 83.5085 90.7511 84.2616 89.4402L80.7931 87.4478ZM79.1129 88.8391C78.2112 89.29 76.8861 89.6856 75.0552 89.9673L75.6635 93.9207C77.7153 93.6051 79.4888 93.1233 80.9018 92.4169L79.1129 88.8391ZM75.0739 89.9645C73.2591 90.2262 70.9627 90.364 68.1634 90.364V94.364C71.076 94.364 73.577 94.2218 75.6449 93.9235L75.0739 89.9645ZM68.1634 90.364H58.0834V94.364H68.1634V90.364ZM58.0834 90.364C55.284 90.364 52.9877 90.2262 51.1729 89.9645L50.6019 93.9235C52.6697 94.2218 55.1707 94.364 58.0834 94.364V90.364ZM51.1915 89.9673C49.3615 89.6857 48.0211 89.2895 47.0944 88.8335L45.3283 92.4225C46.7536 93.1239 48.5306 93.6049 50.5832 93.9207L51.1915 89.9673ZM47.1058 88.8391C46.2028 88.3876 45.7136 87.9005 45.4536 87.4478L41.9851 89.4402C42.7331 90.7422 43.9053 91.711 45.3169 92.4169L47.1058 88.8391ZM45.4625 87.4635C45.1499 86.9077 44.9634 86.2186 44.9634 85.336H40.9634C40.9634 86.8054 41.2808 88.1883 41.9762 89.4245L45.4625 87.4635ZM44.9634 85.336V71H40.9634V85.336H44.9634ZM42.9634 73H52.2034V69H42.9634V73ZM50.2034 71V85.532H54.2034V71H50.2034ZM50.2034 85.532C50.2034 87.2492 50.6526 88.9275 51.9595 90.1005L54.6312 87.1235C54.4822 86.9898 54.2034 86.6148 54.2034 85.532H50.2034ZM51.9811 90.1195C53.2963 91.2662 55.2895 91.564 57.2994 91.564V87.564C55.4266 87.564 54.7504 87.2272 54.6096 87.1045L51.9811 90.1195ZM57.2994 91.564H68.9474V87.564H57.2994V91.564ZM68.9474 91.564C70.9573 91.564 72.9504 91.2662 74.2656 90.1195L71.6371 87.1045C71.4963 87.2272 70.8201 87.564 68.9474 87.564V91.564ZM74.2872 90.1005C75.5942 88.9275 76.0434 87.2492 76.0434 85.532H72.0434C72.0434 86.6148 71.7646 86.9898 71.6155 87.1235L74.2872 90.1005ZM76.0434 85.532V74.08H72.0434V85.532H76.0434ZM76.0434 74.08C76.0434 73.7471 76.1201 73.6314 76.36 73.4821L74.2468 70.0859C72.8067 70.9819 72.0434 72.3969 72.0434 74.08H76.0434ZM76.36 73.4821C76.7964 73.2106 77.4732 73 78.5234 73V69C76.9602 69 75.4904 69.3121 74.2468 70.0859L76.36 73.4821ZM78.5234 73H87.7914V69H78.5234V73ZM85.7914 71V73.772H89.7914V71H85.7914ZM87.7914 71.772H84.5154V75.772H87.7914V71.772ZM84.5154 71.772C83.6501 71.772 82.8367 72.0902 82.2051 72.7218L85.0336 75.5502C84.9783 75.6055 84.8921 75.6696 84.7781 75.7159C84.6655 75.7617 84.5702 75.772 84.5154 75.772V71.772ZM82.2051 72.7218C81.5597 73.3672 81.2834 74.1882 81.2834 75.004H85.2834C85.2834 75.0386 85.2774 75.1269 85.2325 75.243C85.1859 75.3635 85.1142 75.4696 85.0336 75.5502L82.2051 72.7218ZM79.0866 71V69H77.0866V71H79.0866ZM116.803 71.28L116.587 73.2683L116.598 73.2696L116.61 73.2707L116.803 71.28ZM120.919 72.204L120.106 74.0316L120.121 74.0379L120.135 74.044L120.919 72.204ZM123.047 73.996L121.284 74.9416L121.289 74.9508L121.294 74.9598L123.047 73.996ZM123.047 80.66L124.777 81.6621L124.783 81.6524L124.789 81.6426L123.047 80.66ZM120.919 82.396L120.106 80.5683L120.094 80.5741L120.919 82.396ZM116.831 83.404L116.575 81.4204L116.572 81.4208L116.831 83.404ZM98.4066 83.74V81.74H96.4066V83.74H98.4066ZM98.4066 92V94H100.407V92H98.4066ZM89.1666 92H87.1666V94H89.1666V92ZM90.6786 81.948L91.6499 83.6963L91.6607 83.6903L90.6786 81.948ZM113.191 80.52L114.326 82.1664L114.345 82.1534L114.364 82.1399L113.191 80.52ZM113.191 74.388L112.018 76.0079L112.018 76.0079L113.191 74.388ZM79.0866 73.8H77.0866V75.8H79.0866V73.8ZM79.0866 73H110.279V69H79.0866V73ZM110.279 73C112.872 73 114.968 73.0923 116.587 73.2683L117.019 69.2917C115.203 69.0943 112.95 69 110.279 69V73ZM116.61 73.2707C118.241 73.4286 119.375 73.7065 120.106 74.0316L121.731 70.3764C120.446 69.8055 118.836 69.4674 116.995 69.2893L116.61 73.2707ZM120.135 74.044C120.836 74.3427 121.14 74.6723 121.284 74.9416L124.809 73.0504C124.132 71.7891 123.017 70.924 121.702 70.364L120.135 74.044ZM121.294 74.9598C121.497 75.3285 121.663 75.9133 121.663 76.824H125.663C125.663 75.4573 125.418 74.1568 124.799 73.0322L121.294 74.9598ZM121.663 76.824V78.112H125.663V76.824H121.663ZM121.663 78.112C121.663 78.7944 121.521 79.2945 121.305 79.6774L124.789 81.6426C125.394 80.5695 125.663 79.3709 125.663 78.112H121.663ZM121.316 79.6579C121.179 79.8946 120.86 80.2333 120.106 80.5684L121.731 84.2236C122.993 83.6627 124.093 82.844 124.777 81.6621L121.316 79.6579ZM120.094 80.5741C119.361 80.9059 118.219 81.2083 116.575 81.4204L117.087 85.3876C118.915 85.1517 120.498 84.7821 121.744 84.2179L120.094 80.5741ZM116.572 81.4208C114.972 81.6295 112.9 81.74 110.335 81.74V85.74C112.996 85.74 115.255 85.6265 117.089 85.3872L116.572 81.4208ZM110.335 81.74H98.4066V85.74H110.335V81.74ZM96.4066 83.74V92H100.407V83.74H96.4066ZM98.4066 90H89.1666V94H98.4066V90ZM91.1666 92V84.748H87.1666V92H91.1666ZM91.1666 84.748C91.1666 84.0505 91.373 83.8501 91.6499 83.6963L89.7074 80.1997C87.9682 81.1659 87.1666 82.8321 87.1666 84.748H91.1666ZM91.6607 83.6903C92.1939 83.3897 93.5519 83.08 96.1666 83.08V79.08C93.5174 79.08 91.2167 79.3489 89.6966 80.2057L91.6607 83.6903ZM96.1666 83.08H110.587V79.08H96.1666V83.08ZM110.587 83.08C111.899 83.08 113.274 82.892 114.326 82.1664L112.055 78.8736C112.062 78.8692 111.975 78.9283 111.713 78.9847C111.455 79.0401 111.088 79.08 110.587 79.08V83.08ZM114.364 82.1399C115.665 81.1973 116.003 79.6799 116.003 78.364H112.003C112.003 78.7271 111.954 78.9133 111.928 78.9821C111.91 79.0307 111.925 78.9669 112.018 78.9001L114.364 82.1399ZM116.003 78.364V76.488H112.003V78.364H116.003ZM116.003 76.488C116.003 75.1778 115.649 73.6987 114.364 72.7681L112.018 76.0079C111.985 75.9844 111.959 75.957 111.941 75.9332C111.924 75.9107 111.925 75.9046 111.934 75.9283C111.956 75.9842 112.003 76.1512 112.003 76.488H116.003ZM114.364 72.7681C113.303 72.0003 111.911 71.8 110.587 71.8V75.8C111.083 75.8 111.443 75.8415 111.693 75.8979C111.946 75.955 112.026 76.0139 112.018 76.0079L114.364 72.7681ZM110.587 71.8H79.0866V75.8H110.587V71.8ZM81.0866 73.8V71H77.0866V73.8H81.0866ZM162.176 89.2H164.176V87.2H162.176V89.2ZM162.176 92V94H164.176V92H162.176ZM130.032 89.76L129.017 91.4839L129.028 91.4903L130.032 89.76ZM127.288 86.932L125.476 87.7794L125.484 87.7971L125.493 87.8146L127.288 86.932ZM127.344 76.096L125.566 75.1787L125.561 75.1899L127.344 76.096ZM130.172 73.24L129.179 71.5035L129.168 71.5097L130.172 73.24ZM135.268 71.56L134.919 69.5906L134.916 69.5911L135.268 71.56ZM162.176 71H164.176V69H162.176V71ZM162.176 73.8V75.8H164.176V73.8H162.176ZM139.496 74.08L139.079 72.1238L139.071 72.1256L139.496 74.08ZM137.48 75.032L136.123 73.5624L136.109 73.5757L136.094 73.5892L137.48 75.032ZM136.528 76.852L138.481 77.2808L138.481 77.2808L136.528 76.852ZM136.528 86.12L138.481 85.6912L138.481 85.6912L136.528 86.12ZM137.508 87.968L136.121 89.4097L136.15 89.4368L136.179 89.4628L137.508 87.968ZM139.636 88.92L140.035 86.9604L140.035 86.9604L139.636 88.92ZM160.176 89.2V92H164.176V89.2H160.176ZM162.176 90H142.912V94H162.176V90ZM142.912 90C139.902 90 137.433 89.8169 135.476 89.4706L134.779 93.4094C137.041 93.8098 139.761 94 142.912 94V90ZM135.476 89.4706C133.505 89.1217 132.052 88.6197 131.035 88.0297L129.028 91.4903C130.587 92.3937 132.532 93.0116 134.779 93.4094L135.476 89.4706ZM131.046 88.0361C130.058 87.455 129.443 86.7839 129.082 86.0494L125.493 87.8146C126.252 89.3575 127.467 90.5716 129.018 91.4839L131.046 88.0361ZM129.099 86.0846C128.704 85.2399 128.476 84.195 128.476 82.9H124.476C124.476 84.6663 124.788 86.3095 125.476 87.7794L129.099 86.0846ZM128.476 82.9V80.1H124.476V82.9H128.476ZM128.476 80.1C128.476 78.8223 128.716 77.8096 129.127 77.0021L125.561 75.1899C124.814 76.6597 124.476 78.3164 124.476 80.1H128.476ZM129.121 77.0133C129.519 76.2419 130.169 75.5535 131.175 74.9703L129.168 71.5097C127.599 72.4198 126.363 73.6354 125.566 75.1787L129.121 77.0133ZM131.164 74.9765C132.208 74.3796 133.669 73.8772 135.619 73.5289L134.916 69.5911C132.685 69.9895 130.748 70.6071 129.179 71.5035L131.164 74.9765ZM135.616 73.5294C137.575 73.1826 140 73 142.912 73V69C139.85 69 137.178 69.1907 134.919 69.5906L135.616 73.5294ZM142.912 73H162.176V69H142.912V73ZM160.176 71V73.8H164.176V71H160.176ZM162.176 71.8H142.912V75.8H162.176V71.8ZM142.912 71.8C141.44 71.8 140.147 71.8966 139.079 72.1238L139.912 76.0362C140.598 75.8901 141.583 75.8 142.912 75.8V71.8ZM139.071 72.1256C137.975 72.3638 136.943 72.8056 136.123 73.5624L138.836 76.5016C138.987 76.3624 139.298 76.1696 139.92 76.0344L139.071 72.1256ZM136.094 73.5892C135.287 74.3648 134.809 75.3538 134.574 76.4232L138.481 77.2808C138.582 76.8196 138.739 76.5952 138.865 76.4748L136.094 73.5892ZM134.574 76.4232C134.364 77.3788 134.276 78.4959 134.276 79.736H138.276C138.276 78.6615 138.355 77.8559 138.481 77.2808L134.574 76.4232ZM134.276 79.736V83.236H138.276V79.736H134.276ZM134.276 83.236C134.276 84.4761 134.364 85.5932 134.574 86.5488L138.481 85.6912C138.355 85.1161 138.276 84.3105 138.276 83.236H134.276ZM134.574 86.5488C134.813 87.6356 135.307 88.6262 136.121 89.4097L138.894 86.5263C138.738 86.3764 138.578 86.1351 138.481 85.6912L134.574 86.5488ZM136.179 89.4628C137.028 90.2179 138.102 90.6483 139.236 90.8796L140.035 86.9604C139.339 86.8183 138.995 86.6141 138.836 86.4732L136.179 89.4628ZM139.236 90.8796C140.334 91.1037 141.667 91.2 143.192 91.2V87.2C141.804 87.2 140.767 87.1097 140.035 86.9604L139.236 90.8796ZM143.192 91.2H162.176V87.2H143.192V91.2ZM172.797 91.748L172.405 93.7092L172.409 93.7098L172.797 91.748ZM167.897 89.956L166.794 91.624L166.803 91.63L166.812 91.6358L167.897 89.956ZM165.321 86.988L163.479 87.7654L163.483 87.7758L165.321 86.988ZM165.349 76.04L163.528 75.2145L163.525 75.2211L163.522 75.2277L165.349 76.04ZM168.037 73.072L169.1 74.7666L169.109 74.7609L169.118 74.7552L168.037 73.072ZM173.049 71.252L172.664 69.2895L172.664 69.2895L173.049 71.252ZM199.201 71.252L199.587 69.2895L199.587 69.2895L199.201 71.252ZM204.213 73.072L203.133 74.7552L203.142 74.7609L203.151 74.7666L204.213 73.072ZM206.873 76.04L205.041 76.8416L205.049 76.859L205.057 76.8763L206.873 76.04ZM206.845 86.988L208.651 87.8479L208.656 87.8369L206.845 86.988ZM204.073 89.956L205.113 91.6644L205.122 91.6589L205.131 91.6534L204.073 89.956ZM198.949 91.748L198.57 89.7842L198.567 89.7849L198.949 91.748ZM196.513 88.248L197.898 89.6914L197.905 89.6841L197.913 89.6767L196.513 88.248ZM196.541 74.752L197.941 73.323L197.941 73.323L196.541 74.752ZM175.709 74.752L174.31 73.323L174.31 73.323L175.709 74.752ZM175.653 88.248L174.209 89.6318L174.224 89.6472L174.239 89.6622L175.653 88.248ZM191.165 90.364H180.525V94.364H191.165V90.364ZM180.525 90.364C177.522 90.364 175.087 90.1628 173.186 89.7862L172.409 93.7098C174.652 94.1545 177.368 94.364 180.525 94.364V90.364ZM173.19 89.7868C171.282 89.4052 169.913 88.8769 168.983 88.2762L166.812 91.6358C168.309 92.6031 170.207 93.2694 172.405 93.7092L173.19 89.7868ZM169.001 88.288C168.067 87.6703 167.49 86.9698 167.16 86.2002L163.483 87.7758C164.161 89.3582 165.301 90.6364 166.794 91.624L169.001 88.288ZM167.164 86.2106C166.781 85.3022 166.565 84.2111 166.565 82.9H162.565C162.565 84.6503 162.854 86.2845 163.479 87.7654L167.164 86.2106ZM166.565 82.9V80.1H162.565V82.9H166.565ZM166.565 80.1C166.565 78.797 166.787 77.7288 167.177 76.8523L163.522 75.2277C162.866 76.7032 162.565 78.3417 162.565 80.1H166.565ZM167.171 76.8655C167.53 76.0726 168.139 75.3689 169.1 74.7666L166.975 71.3774C165.435 72.3431 164.251 73.6181 163.528 75.2145L167.171 76.8655ZM169.118 74.7552C170.086 74.1339 171.493 73.596 173.435 73.2145L172.664 69.2895C170.425 69.7294 168.49 70.4048 166.957 71.3888L169.118 74.7552ZM173.435 73.2145C175.356 72.8371 177.803 72.636 180.805 72.636V68.636C177.648 68.636 174.924 68.8456 172.664 69.2895L173.435 73.2145ZM180.805 72.636H191.445V68.636H180.805V72.636ZM191.445 72.636C194.448 72.636 196.895 72.8371 198.816 73.2145L199.587 69.2895C197.327 68.8456 194.603 68.636 191.445 68.636V72.636ZM198.816 73.2145C200.758 73.596 202.165 74.1339 203.133 74.7552L205.294 71.3888C203.76 70.4048 201.826 69.7294 199.587 69.2895L198.816 73.2145ZM203.151 74.7666C204.108 75.3662 204.7 76.0625 205.041 76.8416L208.706 75.2384C208.001 73.6281 206.82 72.3458 205.276 71.3774L203.151 74.7666ZM205.057 76.8763C205.457 77.7465 205.685 78.806 205.685 80.1H209.685C209.685 78.3327 209.372 76.6855 208.69 75.2037L205.057 76.8763ZM205.685 80.1V82.9H209.685V80.1H205.685ZM205.685 82.9C205.685 84.184 205.452 85.2495 205.034 86.1391L208.656 87.8369C209.359 86.3372 209.685 84.6773 209.685 82.9H205.685ZM205.04 86.1281C204.67 86.9055 204.034 87.624 203.016 88.2586L205.131 91.6534C206.689 90.6827 207.901 89.4225 208.651 87.8479L205.04 86.1281ZM203.033 88.2476C202.017 88.8664 200.558 89.4006 198.57 89.7842L199.328 93.7118C201.597 93.274 203.554 92.6136 205.113 91.6644L203.033 88.2476ZM198.567 89.7849C196.625 90.163 194.167 90.364 191.165 90.364V94.364C194.324 94.364 197.055 94.1543 199.332 93.7111L198.567 89.7849ZM192.005 91.564C194.296 91.564 196.432 91.0972 197.898 89.6914L195.129 86.8046C194.765 87.1535 193.896 87.564 192.005 87.564V91.564ZM197.913 89.6767C199.405 88.2151 199.885 86.0088 199.885 83.656H195.885C195.885 85.6339 195.451 86.4889 195.114 86.8193L197.913 89.6767ZM199.885 83.656V79.316H195.885V83.656H199.885ZM199.885 79.316C199.885 76.9778 199.42 74.7719 197.941 73.323L195.142 76.181C195.454 76.4867 195.885 77.3235 195.885 79.316H199.885ZM197.941 73.323C196.51 71.9224 194.471 71.436 192.285 71.436V75.436C193.982 75.436 194.781 75.827 195.142 76.181L197.941 73.323ZM192.285 71.436H179.965V75.436H192.285V71.436ZM179.965 71.436C177.78 71.436 175.741 71.9224 174.31 73.323L177.109 76.181C177.47 75.827 178.268 75.436 179.965 75.436V71.436ZM174.31 73.323C172.83 74.7719 172.365 76.9778 172.365 79.316H176.365C176.365 77.3235 176.796 76.4867 177.109 76.181L174.31 73.323ZM172.365 79.316V83.656H176.365V79.316H172.365ZM172.365 83.656C172.365 85.9834 172.808 88.169 174.209 89.6318L177.097 86.8642C176.782 86.535 176.365 85.6593 176.365 83.656H172.365ZM174.239 89.6622C175.634 91.0574 177.588 91.564 179.685 91.564V87.564C178.162 87.564 177.427 87.1933 177.068 86.8338L174.239 89.6622ZM179.685 91.564H192.005V87.564H179.685V91.564ZM212.036 92H210.036V94H212.036V92ZM214.528 71.784L213.692 69.9675L213.692 69.9675L214.528 71.784ZM229.256 71.532L228.641 73.4351L228.647 73.4368L229.256 71.532ZM232.728 74.388L230.836 75.0366L230.838 75.04L232.728 74.388ZM237.488 88.192L239.386 87.5596L239.382 87.5498L239.379 87.54L237.488 88.192ZM237.88 88.78L236.542 90.2666L236.586 90.3054L236.631 90.3417L237.88 88.78ZM239.504 88.752L240.919 90.1662L240.956 90.129L240.991 90.0899L239.504 88.752ZM239.868 88.136L237.98 87.477L237.975 87.4902L237.971 87.5035L239.868 88.136ZM244.656 74.416L246.545 75.075L246.546 75.072L244.656 74.416ZM247.848 71.532L248.506 73.4207L248.516 73.4174L248.525 73.414L247.848 71.532ZM262.128 71.784L261.307 73.6075L261.315 73.6112L261.324 73.6149L262.128 71.784ZM264.676 92V94H266.676V92H264.676ZM255.996 92H253.996V94H255.996V92ZM255.66 74.08L254.134 75.3719L254.187 75.4354L254.246 75.4942L255.66 74.08ZM253.42 74.052L254.835 75.4662L254.835 75.4662L253.42 74.052ZM252.86 75.06L254.736 75.7541L254.739 75.7458L254.742 75.7374L252.86 75.06ZM247.876 88.528L249.749 89.2303L249.752 89.2221L247.876 88.528ZM244.712 91.356L245.462 93.2101L245.471 93.2065L245.48 93.2028L244.712 91.356ZM232.14 91.384L231.368 93.2289L231.377 93.2327L231.386 93.2365L232.14 91.384ZM229.088 88.612L230.967 87.9261L230.963 87.9161L229.088 88.612ZM224.048 75.032L222.172 75.7234L222.173 75.7279L224.048 75.032ZM223.488 74.108L221.97 75.4096L221.996 75.4398L222.023 75.4689L223.488 74.108ZM221.136 74.052L219.887 72.4903L219.887 72.4903L221.136 74.052ZM220.716 92V94H222.716V92H220.716ZM214.036 92V75.116H210.036V92H214.036ZM214.036 75.116C214.036 74.7968 214.118 74.5804 214.261 74.3888C214.423 74.1717 214.744 73.8867 215.365 73.6005L213.692 69.9675C212.651 70.4466 211.726 71.0996 211.058 71.9932C210.37 72.9123 210.036 73.9792 210.036 75.116H214.036ZM215.365 73.6005C216.624 73.0207 218.817 72.636 222.172 72.636V68.636C218.659 68.636 215.756 69.0167 213.692 69.9675L215.365 73.6005ZM222.172 72.636C224.928 72.636 227.063 72.9248 228.641 73.4351L229.871 69.6289C227.754 68.9445 225.166 68.636 222.172 68.636V72.636ZM228.647 73.4368C230.179 73.9272 230.67 74.5512 230.836 75.0366L234.62 73.7394C233.891 71.6115 232.067 70.3315 229.866 69.6272L228.647 73.4368ZM230.838 75.04L235.598 88.844L239.379 87.54L234.619 73.736L230.838 75.04ZM235.591 88.8244C235.782 89.3977 236.115 89.8823 236.542 90.2666L239.218 87.2934C239.241 87.3137 239.273 87.3479 239.306 87.3976C239.34 87.4479 239.367 87.5033 239.386 87.5596L235.591 88.8244ZM236.631 90.3417C237.308 90.8834 238.095 91.004 238.692 91.004V87.004C238.65 87.004 238.679 86.9989 238.755 87.02C238.836 87.0424 238.978 87.0965 239.13 87.2183L236.631 90.3417ZM238.692 91.004C239.302 91.004 240.209 90.8756 240.919 90.1662L238.09 87.3378C238.276 87.1519 238.467 87.0666 238.583 87.0309C238.689 86.9978 238.738 87.004 238.692 87.004V91.004ZM240.991 90.0899C241.331 89.7121 241.599 89.2697 241.766 88.7685L237.971 87.5035C237.979 87.48 237.989 87.4584 237.999 87.4405C238.005 87.432 238.009 87.4254 238.012 87.4208C238.016 87.4162 238.018 87.414 238.018 87.4141L240.991 90.0899ZM241.757 88.795L246.545 75.075L242.768 73.757L237.98 87.477L241.757 88.795ZM246.546 75.072C246.765 74.441 247.272 73.8507 248.506 73.4207L247.19 69.6433C245.102 70.3706 243.481 71.703 242.767 73.76L246.546 75.072ZM248.525 73.414C249.871 72.9301 251.92 72.636 254.792 72.636V68.636C251.729 68.636 249.148 68.9392 247.172 69.65L248.525 73.414ZM254.792 72.636C257.875 72.636 259.988 73.0134 261.307 73.6075L262.95 69.9605C260.871 69.0239 258.094 68.636 254.792 68.636V72.636ZM261.324 73.6149C261.961 73.8953 262.287 74.1783 262.451 74.3919C262.593 74.5785 262.676 74.7921 262.676 75.116H266.676C266.676 73.9652 266.335 72.8861 265.628 71.9621C264.942 71.065 263.994 70.4194 262.933 69.9531L261.324 73.6149ZM262.676 75.116V92H266.676V75.116H262.676ZM264.676 90H255.996V94H264.676V90ZM257.996 92V75.2H253.996V92H257.996ZM257.996 75.2C257.996 74.4743 257.855 73.4459 257.075 72.6658L254.246 75.4942C254.076 75.3242 254.014 75.1609 253.997 75.1027C253.981 75.0518 253.996 75.0715 253.996 75.2H257.996ZM257.187 72.7881C256.404 71.8624 255.272 71.716 254.54 71.716V75.716C254.675 75.716 254.681 75.7327 254.608 75.7091C254.524 75.6817 254.322 75.5944 254.134 75.3719L257.187 72.7881ZM254.54 71.716C253.815 71.716 252.786 71.8577 252.006 72.6378L254.835 75.4662C254.664 75.6363 254.501 75.6982 254.443 75.7157C254.392 75.7309 254.412 75.716 254.54 75.716V71.716ZM252.006 72.6378C251.495 73.1493 251.185 73.8085 250.979 74.3826L254.742 75.7374C254.799 75.578 254.846 75.4806 254.875 75.4293C254.905 75.3746 254.898 75.4029 254.835 75.4662L252.006 72.6378ZM250.985 74.3659L246.001 87.8339L249.752 89.2221L254.736 75.7541L250.985 74.3659ZM246.004 87.8258C245.819 88.3194 245.309 88.9418 243.945 89.5092L245.48 93.2028C247.438 92.3888 249.038 91.126 249.749 89.2302L246.004 87.8258ZM243.962 89.5019C242.619 90.0452 240.779 90.364 238.356 90.364V94.364C241.086 94.364 243.483 94.0108 245.462 93.2101L243.962 89.5019ZM238.356 90.364C235.966 90.364 234.176 90.0532 232.894 89.5315L231.386 93.2365C233.315 94.0214 235.669 94.364 238.356 94.364V90.364ZM232.913 89.5391C231.615 88.9959 231.14 88.3997 230.967 87.9261L227.21 89.2979C227.895 91.1763 229.455 92.4281 231.368 93.2289L232.913 89.5391ZM230.963 87.9161L225.923 74.3361L222.173 75.7279L227.213 89.3079L230.963 87.9161ZM225.925 74.3406C225.708 73.7528 225.387 73.2137 224.954 72.7471L222.023 75.4689C222.075 75.525 222.127 75.6018 222.172 75.7234L225.925 74.3406ZM225.007 72.8064C224.23 71.9 223.133 71.716 222.34 71.716V75.716C222.461 75.716 222.461 75.7319 222.387 75.7067C222.3 75.6769 222.128 75.5946 221.97 75.4096L225.007 72.8064ZM222.34 71.716C221.565 71.716 220.652 71.8782 219.887 72.4903L222.386 75.6137C222.284 75.695 222.202 75.7216 222.185 75.7264C222.177 75.7285 222.185 75.7257 222.212 75.7225C222.238 75.7192 222.28 75.716 222.34 75.716V71.716ZM219.887 72.4903C218.946 73.2433 218.716 74.33 218.716 75.172H222.716C222.716 75.08 222.73 75.1066 222.694 75.2022C222.652 75.3142 222.558 75.4761 222.386 75.6137L219.887 72.4903ZM218.716 75.172V92H222.716V75.172H218.716ZM220.716 90H212.036V94H220.716V90ZM270.279 92H268.279V94H270.279V92ZM270.279 71V69H268.279V71H270.279ZM279.519 71H281.519V69H279.519V71ZM279.519 92V94H281.519V92H279.519ZM272.279 92V71H268.279V92H272.279ZM270.279 73H279.519V69H270.279V73ZM277.519 71V92H281.519V71H277.519ZM279.519 90H270.279V94H279.519V90ZM284.846 92H282.846V94H284.846V92ZM302.318 71.42L301.833 73.3603L301.843 73.3628L301.853 73.3652L302.318 71.42ZM306.938 74.444L305.255 75.5245L305.258 75.5289L306.938 74.444ZM316.122 88.668L317.805 87.5865L317.802 87.5831L316.122 88.668ZM316.738 89.312L315.6 90.9564L315.628 90.9759L315.657 90.9944L316.738 89.312ZM318.53 89.228L320.258 90.2358L320.275 90.2063L320.291 90.1762L318.53 89.228ZM318.726 71V69H316.726V71H318.726ZM327.966 71H329.966V69H327.966V71ZM325.25 91.328L325.963 93.1967L325.971 93.1935L325.98 93.1902L325.25 91.328ZM310.55 91.524L309.981 93.4412L309.981 93.4412L310.55 91.524ZM306.434 88.668L308.12 87.5912L308.115 87.5845L308.111 87.5778L306.434 88.668ZM297.222 74.5L298.899 73.4098L298.893 73.4002L298.886 73.3906L297.222 74.5ZM296.438 73.716L297.498 72.02L297.498 72.02L296.438 73.716ZM294.31 73.828L292.628 72.7465L292.617 72.763L292.607 72.7798L294.31 73.828ZM294.086 92V94H296.086V92H294.086ZM286.846 92V75.2H282.846V92H286.846ZM286.846 75.2C286.846 74.8814 286.929 74.6596 287.082 74.4575C287.257 74.228 287.599 73.9299 288.253 73.6314L286.592 69.9926C285.528 70.4781 284.582 71.1367 283.898 72.0365C283.193 72.9637 282.846 74.0439 282.846 75.2H286.846ZM288.253 73.6314C289.578 73.0262 291.783 72.636 295.066 72.636V68.636C291.592 68.636 288.701 69.0298 286.592 69.9926L288.253 73.6314ZM295.066 72.636C297.689 72.636 299.937 72.8863 301.833 73.3603L302.803 69.4797C300.518 68.9083 297.932 68.636 295.066 68.636V72.636ZM301.853 73.3652C303.571 73.7756 304.619 74.5343 305.255 75.5245L308.621 73.3635C307.316 71.3297 305.284 70.0724 302.783 69.4748L301.853 73.3652ZM305.258 75.5289L314.442 89.7529L317.802 87.5831L308.618 73.3591L305.258 75.5289ZM314.44 89.7495C314.743 90.2206 315.129 90.6306 315.6 90.9564L317.877 87.6676C317.862 87.6574 317.838 87.638 317.805 87.5865L314.44 89.7495ZM315.657 90.9944C316.227 91.361 316.88 91.564 317.578 91.564V87.564C317.619 87.564 317.668 87.5702 317.719 87.5853C317.769 87.6003 317.803 87.6189 317.82 87.6296L315.657 90.9944ZM317.578 91.564C318.148 91.564 319.533 91.4787 320.258 90.2358L316.803 88.2202C317.04 87.814 317.376 87.6479 317.529 87.594C317.662 87.5469 317.705 87.564 317.578 87.564V91.564ZM320.291 90.1762C320.664 89.4829 320.726 88.6867 320.726 88.08H316.726C316.726 88.2645 316.714 88.3728 316.706 88.4224C316.702 88.4452 316.701 88.443 316.707 88.4216C316.714 88.4006 316.732 88.3494 316.769 88.2798L320.291 90.1762ZM320.726 88.08V71H316.726V88.08H320.726ZM318.726 73H327.966V69H318.726V73ZM325.966 71V87.996H329.966V71H325.966ZM325.966 87.996C325.966 88.319 325.882 88.5216 325.737 88.6994C325.566 88.9094 325.215 89.1937 324.521 89.4658L325.98 93.1902C327.096 92.753 328.103 92.1273 328.837 91.2266C329.598 90.2937 329.966 89.185 329.966 87.996H325.966ZM324.537 89.4593C323.071 90.0187 320.685 90.364 317.214 90.364V94.364C320.837 94.364 323.808 94.0187 325.963 93.1967L324.537 89.4593ZM317.214 90.364C314.795 90.364 312.774 90.0983 311.12 89.6068L309.981 93.4412C312.097 94.0697 314.518 94.364 317.214 94.364V90.364ZM311.12 89.6068C309.584 89.1505 308.663 88.4417 308.12 87.5912L304.749 89.7448C305.923 91.5823 307.746 92.7775 309.981 93.4412L311.12 89.6068ZM308.111 87.5778L298.899 73.4098L295.545 75.5902L304.757 89.7582L308.111 87.5778ZM298.886 73.3906C298.528 72.8529 298.07 72.3776 297.498 72.02L295.378 75.412C295.403 75.4277 295.469 75.4751 295.558 75.6094L298.886 73.3906ZM297.498 72.02C296.862 71.6226 296.155 71.436 295.43 71.436V75.436C295.449 75.436 295.445 75.4381 295.427 75.433C295.419 75.4307 295.409 75.4275 295.4 75.4233C295.391 75.4192 295.383 75.4151 295.378 75.412L297.498 72.02ZM295.43 71.436C294.738 71.436 293.391 71.5599 292.628 72.7465L295.993 74.9095C295.776 75.2461 295.495 75.3805 295.377 75.4217C295.277 75.4566 295.271 75.436 295.43 75.436V71.436ZM292.607 72.7798C292.152 73.5191 292.086 74.3975 292.086 75.032H296.086C296.086 74.9357 296.089 74.8578 296.094 74.7966C296.099 74.735 296.105 74.6963 296.108 74.6768C296.112 74.6567 296.112 74.6659 296.101 74.6968C296.091 74.7272 296.065 74.7923 296.013 74.8762L292.607 72.7798ZM292.086 75.032V92H296.086V75.032H292.086ZM294.086 90H284.846V94H294.086V90ZM371.891 71H373.891V69H371.891V71ZM371.891 73.8V75.8H373.891V73.8H371.891ZM346.075 74.164L346.461 76.1264L346.476 76.1234L346.491 76.1201L346.075 74.164ZM343.415 75.228L344.622 76.8222L344.629 76.8167L343.415 75.228ZM342.155 77.048L340.239 76.4733L340.239 76.4733L342.155 77.048ZM342.127 85.952L340.198 86.4823L340.198 86.4823L342.127 85.952ZM343.219 87.8L341.858 89.2656L341.87 89.2775L341.883 89.2891L343.219 87.8ZM345.459 88.892L344.965 90.83L344.982 90.8346L345 90.8388L345.459 88.892ZM359.767 89.088L359.974 91.0772L359.992 91.0754L360.01 91.0732L359.767 89.088ZM361.923 88.556L361.104 86.731L361.092 86.7364L361.08 86.742L361.923 88.556ZM363.043 87.576L361.287 86.6183L361.27 86.6496L361.254 86.6816L363.043 87.576ZM363.379 83.012H365.379V81.012H363.379V83.012ZM350.947 83.012H348.947V85.012H350.947V83.012ZM350.947 80.212V78.212H348.947V80.212H350.947ZM372.619 80.212H374.619V78.212H372.619V80.212ZM368.951 90.796L369.632 92.6764L369.644 92.672L369.656 92.6675L368.951 90.796ZM363.827 91.776L363.985 93.7697L363.993 93.7691L364.001 93.7683L363.827 91.776ZM341.343 91.496L341.025 93.4706L341.027 93.471L341.343 91.496ZM335.967 89.872L335.005 91.626L335.02 91.6338L335.034 91.6413L335.967 89.872ZM332.971 87.016L331.21 87.9659L331.217 87.9777L332.971 87.016ZM332.915 76.04L331.143 75.112L331.137 75.1227L332.915 76.04ZM335.939 73.184L336.861 74.9585L336.87 74.9538L335.939 73.184ZM341.567 71.532L341.867 73.5093L341.867 73.5093L341.567 71.532ZM369.891 71V73.8H373.891V71H369.891ZM371.891 71.8H350.499V75.8H371.891V71.8ZM350.499 71.8C348.616 71.8 346.987 71.9247 345.658 72.2079L346.491 76.1201C347.44 75.918 348.76 75.8 350.499 75.8V71.8ZM345.688 72.2016C344.375 72.46 343.163 72.9024 342.2 73.6393L344.629 76.8167C344.935 76.5829 345.497 76.316 346.461 76.1264L345.688 72.2016ZM342.207 73.6338C341.25 74.359 340.584 75.3241 340.239 76.4733L344.07 77.6227C344.173 77.2785 344.348 77.0303 344.622 76.8222L342.207 73.6338ZM340.239 76.4733C339.945 77.4517 339.819 78.5311 339.819 79.68H343.819C343.819 78.8129 343.916 78.1376 344.07 77.6227L340.239 76.4733ZM339.819 79.68V83.32H343.819V79.68H339.819ZM339.819 83.32C339.819 84.4565 339.933 85.52 340.198 86.4823L344.055 85.4217C343.909 84.8907 343.819 84.1995 343.819 83.32H339.819ZM340.198 86.4823C340.493 87.5555 341.039 88.5057 341.858 89.2656L344.579 86.3344C344.352 86.1236 344.17 85.8418 344.055 85.4217L340.198 86.4823ZM341.883 89.2891C342.734 90.0519 343.805 90.5344 344.965 90.83L345.953 86.954C345.208 86.7642 344.786 86.5188 344.554 86.3109L341.883 89.2891ZM345 90.8388C346.158 91.1111 347.539 91.228 349.099 91.228V87.228C347.709 87.228 346.663 87.1209 345.917 86.9452L345 90.8388ZM349.099 91.228H356.379V87.228H349.099V91.228ZM356.379 91.228C357.779 91.228 358.984 91.1804 359.974 91.0772L359.559 87.0988C358.757 87.1823 357.703 87.228 356.379 87.228V91.228ZM360.01 91.0732C361.023 90.9491 361.974 90.7372 362.765 90.37L361.08 86.742C360.826 86.8601 360.339 87.0029 359.523 87.1028L360.01 91.0732ZM362.741 90.381C363.578 90.0055 364.366 89.4018 364.831 88.4704L361.254 86.6816C361.264 86.6614 361.275 86.645 361.284 86.6335C361.293 86.6222 361.297 86.6194 361.292 86.6238C361.28 86.6337 361.228 86.6755 361.104 86.731L362.741 90.381ZM364.798 88.5337C365.221 87.7589 365.379 86.9055 365.379 86.064H361.379C361.379 86.4172 361.312 86.5717 361.287 86.6183L364.798 88.5337ZM365.379 86.064V83.012H361.379V86.064H365.379ZM363.379 81.012H350.947V85.012H363.379V81.012ZM352.947 83.012V80.212H348.947V83.012H352.947ZM350.947 82.212H372.619V78.212H350.947V82.212ZM370.619 80.212V85.56H374.619V80.212H370.619ZM370.619 85.56C370.619 86.6005 370.392 87.2541 370.104 87.6734L373.398 89.9426C374.266 88.6819 374.619 87.1702 374.619 85.56H370.619ZM370.104 87.6734C369.825 88.0783 369.282 88.5337 368.245 88.9245L369.656 92.6675C371.195 92.0876 372.519 91.2177 373.398 89.9426L370.104 87.6734ZM368.269 88.9156C367.209 89.2998 365.692 89.6047 363.652 89.7837L364.001 93.7683C366.217 93.574 368.116 93.2255 369.632 92.6764L368.269 88.9156ZM363.668 89.7823C361.629 89.9447 359.109 90.028 356.099 90.028V94.028C359.173 94.028 361.806 93.9433 363.985 93.7697L363.668 89.7823ZM356.099 90.028H349.379V94.028H356.099V90.028ZM349.379 90.028C346.31 90.028 343.743 89.854 341.658 89.521L341.027 93.471C343.384 93.8474 346.175 94.028 349.379 94.028V90.028ZM341.66 89.5214C339.588 89.1878 338.025 88.696 336.899 88.1027L335.034 91.6413C336.671 92.504 338.691 93.0949 341.025 93.4706L341.66 89.5214ZM336.928 88.118C335.839 87.5216 335.145 86.822 334.724 86.0543L331.217 87.9777C332.065 89.5247 333.369 90.7291 335.005 91.626L336.928 88.118ZM334.731 86.0661C334.282 85.2353 334.019 84.1841 334.019 82.844H330.019C330.019 84.7145 330.39 86.4447 331.21 87.9659L334.731 86.0661ZM334.019 82.844V80.184H330.019V82.844H334.019ZM334.019 80.184C334.019 78.8248 334.271 77.7725 334.692 76.9573L331.137 75.1227C330.363 76.6221 330.019 78.3325 330.019 80.184H334.019ZM334.686 76.968C335.079 76.2184 335.754 75.5341 336.861 74.9584L335.016 71.4096C333.323 72.2899 331.982 73.5096 331.143 75.112L334.686 76.968ZM336.87 74.9538C338.022 74.3476 339.66 73.8448 341.867 73.5093L341.266 69.5547C338.806 69.9286 336.693 70.527 335.007 71.4142L336.87 74.9538ZM341.867 73.5093C344.067 73.1748 346.844 73 350.219 73V69C346.724 69 343.732 69.1798 341.266 69.5547L341.867 73.5093ZM350.219 73H371.891V69H350.219V73Z" fill="#18D387"/>
<path d="M-67 80H25" stroke="#46FCB7" stroke-width="6"/>
</g>
<defs>
<clipPath id="clip0_219_4725">
<rect width="390" height="102" fill="white"/>
</clipPath>
</defs>
</svg>
